<svg width="53" height="53" viewBox="0 0 53 53" fill="none" xmlns="http://www.w3.org/2000/svg">
<g clip-path="url(#clip0_179_801)">
<path d="M31.447 4.96533C27.1915 4.96533 23.0315 6.22724 19.4932 8.59148C15.9548 10.9557 13.197 14.3161 11.5685 18.2477C9.93999 22.1793 9.51389 26.5055 10.3441 30.6793C11.1743 34.853 13.2235 38.6869 16.2327 41.696C19.2418 44.7051 23.0756 46.7543 27.2494 47.5845C31.4231 48.4147 35.7493 47.9886 39.6809 46.3601C43.6125 44.7316 46.9729 41.9738 49.3371 38.4355C51.7014 34.8971 52.9633 30.7372 52.9633 26.4816C52.9573 20.777 50.6884 15.3078 46.6547 11.274C42.6209 7.24018 37.1516 4.97136 31.447 4.96533ZM20.2916 40.8603C21.4889 38.9878 23.1384 37.4467 25.0879 36.3793C27.0375 35.3118 29.2243 34.7523 31.447 34.7523C33.6696 34.7523 35.8565 35.3118 37.806 36.3793C39.7556 37.4467 41.405 38.9878 42.6024 40.8603C39.4129 43.3409 35.4875 44.6876 31.447 44.6876C27.4064 44.6876 23.4811 43.3409 20.2916 40.8603ZM24.8266 24.8265C24.8266 23.5172 25.2149 22.2372 25.9423 21.1484C26.6698 20.0597 27.7037 19.2112 28.9135 18.7101C30.1232 18.209 31.4543 18.0779 32.7386 18.3333C34.0228 18.5888 35.2024 19.2193 36.1283 20.1452C37.0542 21.0711 37.6847 22.2507 37.9402 23.535C38.1956 24.8192 38.0645 26.1503 37.5634 27.3601C37.0624 28.5698 36.2138 29.6038 35.1251 30.3312C34.0364 31.0587 32.7564 31.4469 31.447 31.4469C29.6911 31.4469 28.0072 30.7494 26.7657 29.5079C25.5241 28.2663 24.8266 26.5824 24.8266 24.8265ZM45.0519 38.566C43.206 35.8911 40.6104 33.8216 37.5915 32.6179C39.2132 31.3407 40.3965 29.5899 40.9769 27.609C41.5573 25.628 41.5061 23.5155 40.8302 21.5651C40.1543 19.6146 38.8875 17.9233 37.2058 16.7263C35.5241 15.5292 33.5112 14.886 31.447 14.886C29.3828 14.886 27.3699 15.5292 25.6882 16.7263C24.0065 17.9233 22.7396 19.6146 22.0638 21.5651C21.3879 23.5155 21.3366 25.628 21.9171 27.609C22.4975 29.5899 23.6808 31.3407 25.3024 32.6179C22.2836 33.8216 19.688 35.8911 17.8421 38.566C15.5095 35.943 13.985 32.7016 13.452 29.2322C12.919 25.7628 13.4003 22.2133 14.8379 19.0111C16.2755 15.8089 18.6081 13.0906 21.5549 11.1834C24.5016 9.27624 27.9369 8.26156 31.447 8.26156C34.9571 8.26156 38.3923 9.27624 41.3391 11.1834C44.2859 13.0906 46.6185 15.8089 48.0561 19.0111C49.4937 22.2133 49.975 25.7628 49.442 29.2322C48.909 32.7016 47.3844 35.943 45.0519 38.566Z" fill="white"/>
</g>
<defs>
<clipPath id="clip0_179_801">
<rect width="52.9632" height="52.9632" fill="white"/>
</clipPath>
</defs>
</svg>
