<svg width="58" height="58" viewBox="0 0 58 58" fill="none" xmlns="http://www.w3.org/2000/svg">
<path d="M28.625 1C23.1613 1 17.8203 2.62018 13.2774 5.65565C8.73448 8.69113 5.19371 13.0056 3.10284 18.0534C1.01197 23.1012 0.464902 28.6556 1.53082 34.0144C2.59674 39.3731 5.22776 44.2954 9.09119 48.1588C12.9546 52.0223 17.8769 54.6533 23.2356 55.7192C28.5944 56.7851 34.1488 56.238 39.1966 54.1472C44.2444 52.0563 48.5589 48.5155 51.5944 43.9726C54.6298 39.4297 56.25 34.0887 56.25 28.625C56.2423 21.3008 53.3293 14.2787 48.1503 9.09972C42.9713 3.9207 35.9492 1.00773 28.625 1ZM14.3025 47.0859C15.8398 44.6817 17.9575 42.7032 20.4606 41.3327C22.9636 39.9621 25.7713 39.2438 28.625 39.2438C31.4787 39.2438 34.2864 39.9621 36.7895 41.3327C39.2925 42.7032 41.4102 44.6817 42.9475 47.0859C38.8525 50.2707 33.8127 51.9998 28.625 51.9998C23.4373 51.9998 18.3976 50.2707 14.3025 47.0859ZM20.125 26.5C20.125 24.8189 20.6235 23.1755 21.5575 21.7777C22.4915 20.3798 23.819 19.2904 25.3722 18.647C26.9254 18.0037 28.6344 17.8354 30.2833 18.1633C31.9321 18.4913 33.4467 19.3008 34.6354 20.4896C35.8242 21.6783 36.6337 23.1929 36.9617 24.8417C37.2897 26.4906 37.1213 28.1996 36.478 29.7528C35.8346 31.306 34.7452 32.6335 33.3474 33.5675C31.9495 34.5015 30.3062 35 28.625 35C26.3707 35 24.2087 34.1045 22.6146 32.5104C21.0205 30.9163 20.125 28.7543 20.125 26.5ZM46.0925 44.1402C43.7225 40.7058 40.39 38.0489 36.5141 36.5034C38.5961 34.8636 40.1153 32.6157 40.8606 30.0724C41.6058 27.5291 41.54 24.8167 40.6722 22.3125C39.8044 19.8084 38.1779 17.6369 36.0188 16.1C33.8597 14.5631 31.2753 13.7372 28.625 13.7372C25.9748 13.7372 23.3904 14.5631 21.2312 16.1C19.0721 17.6369 17.4456 19.8084 16.5778 22.3125C15.7101 24.8167 15.6442 27.5291 16.3895 30.0724C17.1347 32.6157 18.6539 34.8636 20.736 36.5034C16.86 38.0489 13.5275 40.7058 11.1575 44.1402C8.16277 40.7725 6.20539 36.6109 5.52107 32.1565C4.83675 27.7021 5.45467 23.1449 7.30042 19.0335C9.14617 14.9222 12.141 11.4321 15.9244 8.98346C19.7078 6.53482 24.1184 5.23206 28.625 5.23206C33.1317 5.23206 37.5422 6.53482 41.3256 8.98346C45.109 11.4321 48.1039 14.9222 49.9496 19.0335C51.7954 23.1449 52.4133 27.7021 51.729 32.1565C51.0446 36.6109 49.0873 40.7725 46.0925 44.1402Z" fill="#F26419"/>
</svg>
