<svg width="181" height="197" viewBox="0 0 181 197" fill="none" xmlns="http://www.w3.org/2000/svg">
<g clip-path="url(#clip0_51_51)">
<path d="M27.9597 22.1839C28.3373 22.1767 28.715 22.1695 29.104 22.1621C32.6555 22.5727 35.4524 24.164 38.4144 26.0735C38.801 26.3178 39.1875 26.5621 39.5858 26.8139C40.4102 27.3349 41.2335 27.8576 42.0559 28.3816C43.7331 29.4476 45.4189 30.4993 47.1051 31.551C48.3964 32.3566 49.6868 33.1639 50.9768 33.9716C51.4087 34.2421 51.8407 34.5126 52.2857 34.7913C52.724 35.0658 53.1623 35.3402 53.6139 35.623C55.4277 36.7589 57.2416 37.8944 59.0557 39.0298C59.46 39.2831 59.8644 39.5364 60.2809 39.7974C64.2929 42.3083 68.325 44.786 72.3619 47.2565C73.7911 48.1325 73.7911 48.1325 75.2202 49.0085C75.9426 49.4496 75.9426 49.4496 76.6795 49.8996C83.878 54.3176 83.878 54.3176 84.9243 56.6535C85.1097 58.1141 85.0923 59.5634 85.079 61.0339C85.0801 61.4792 85.0812 61.9244 85.0824 62.3832C85.0845 63.8772 85.0774 65.371 85.0704 66.865C85.07 67.9351 85.0702 69.0053 85.071 70.0754C85.0713 72.3803 85.0676 74.6852 85.0604 76.9901C85.0499 80.3226 85.0465 83.6551 85.0449 86.9877C85.0421 92.3946 85.0336 97.8015 85.0214 103.208C85.0096 108.46 85.0005 113.712 84.995 118.965C84.9945 119.45 84.9945 119.45 84.994 119.946C84.9923 121.57 84.9907 123.194 84.9891 124.819C84.9757 138.292 84.953 151.766 84.9243 165.24C83.1769 164.87 81.9874 164.01 80.5548 162.986C70.8422 156.326 60.0333 152.051 48.6814 149.172C48.3997 149.1 48.118 149.027 47.8278 148.953C42.5171 147.609 37.228 146.709 31.7395 146.784C31.7271 148.134 31.7194 149.485 31.7127 150.835C31.7091 151.22 31.7055 151.605 31.7018 152.002C31.7004 152.369 31.699 152.736 31.6976 153.113C31.6953 153.453 31.6931 153.792 31.6908 154.142C31.6516 154.946 31.6516 154.946 32.1684 155.368C33.0806 155.48 33.9932 155.59 34.9069 155.689C51.9181 157.607 68.6576 163.983 81.0641 175.969C81.387 176.27 81.7099 176.571 82.0426 176.881C84.1953 178.936 85.8883 181.195 87.4978 183.695C87.8585 184.25 87.8585 184.25 88.2266 184.817C88.7845 185.841 88.7845 185.841 88.7845 187.128C86.9185 186.576 85.4504 185.859 83.8252 184.795C66.6875 173.975 46.3698 167.463 26.1368 166.339C23.5427 166.147 22.1659 165.199 20.4538 163.255C19.3986 161.768 19.247 161.014 19.2435 159.208C19.2416 158.747 19.2397 158.285 19.2377 157.809C19.2378 157.297 19.2379 156.786 19.238 156.259C19.2364 155.719 19.2348 155.179 19.2332 154.622C19.2289 153.118 19.2273 151.613 19.2262 150.109C19.2245 148.489 19.2204 146.868 19.2166 145.247C19.2082 141.331 19.2038 137.415 19.2 133.498C19.1981 131.655 19.1958 129.811 19.1936 127.968C19.1863 121.841 19.1801 115.714 19.177 109.587C19.1762 107.997 19.1753 106.406 19.1745 104.815C19.1743 104.42 19.1741 104.025 19.1739 103.617C19.1703 97.2124 19.1594 90.8075 19.1455 84.4026C19.1313 77.8294 19.1236 71.2563 19.1222 64.6831C19.1213 60.9914 19.1175 57.2998 19.1066 53.6082C19.0973 50.4643 19.0938 47.3204 19.098 44.1764C19.0999 42.5723 19.0991 40.9683 19.0908 39.3641C19.0819 37.6247 19.0862 35.8856 19.0919 34.1462C19.0872 33.6396 19.0825 33.1329 19.0776 32.6108C19.1034 29.3409 19.5134 27.378 21.7807 24.925C22.024 24.7286 22.2673 24.5322 22.5179 24.3299C22.7612 24.1279 23.0045 23.926 23.2551 23.7179C24.8425 22.5928 26.0015 22.1924 27.9597 22.1839Z" fill="#F6AE2D"/>
<path d="M115.805 11.5881C115.805 58.6106 115.805 105.633 115.805 154.081C112.692 155.78 109.578 157.48 106.369 159.231C104.235 160.654 104.235 160.654 102.142 162.136C101.687 162.398 101.687 162.398 101.223 162.664C100.798 162.523 100.373 162.381 99.9358 162.235C99.8966 144.228 99.8663 126.222 99.8482 108.215C99.8461 106.09 99.8438 103.965 99.8416 101.841C99.8411 101.417 99.8407 100.994 99.8402 100.559C99.8327 93.7049 99.8192 86.8511 99.8034 79.9973C99.7874 72.9673 99.7779 65.9373 99.7744 58.9073C99.772 54.5677 99.7646 50.2281 99.7507 45.8885C99.7416 42.9146 99.7389 39.9409 99.7411 36.967C99.7422 35.25 99.7405 33.533 99.7313 31.816C99.723 30.2447 99.7225 28.6735 99.7284 27.1021C99.7295 26.2632 99.7221 25.4242 99.7144 24.5852C99.7178 24.0876 99.7212 23.5899 99.7247 23.0772C99.7241 22.6478 99.7234 22.2183 99.7227 21.7759C99.9968 20.265 100.602 19.5563 101.651 18.4552C102.935 17.6274 102.935 17.6274 104.416 16.8525C104.678 16.7136 104.94 16.5748 105.21 16.4317C106.041 15.9929 106.875 15.5609 107.71 15.129C108.274 14.8327 108.837 14.5359 109.4 14.2387C114.434 11.5881 114.434 11.5881 115.805 11.5881Z" fill="#33658A"/>
<path d="M161.699 76.3965C161.729 87.3761 161.752 98.3557 161.766 109.335C161.772 114.433 161.781 119.531 161.796 124.629C161.809 129.072 161.817 133.515 161.82 137.958C161.822 140.311 161.826 142.664 161.835 145.017C161.844 147.231 161.846 149.446 161.844 151.66C161.845 152.473 161.847 153.286 161.852 154.099C161.859 155.208 161.857 156.318 161.854 157.428C161.857 157.75 161.861 158.071 161.865 158.402C161.844 160.895 161.186 162.561 159.635 164.489C157.82 165.941 155.744 166.206 153.479 166.373C152.969 166.415 152.459 166.456 151.933 166.5C151.387 166.544 150.842 166.589 150.279 166.634C135.822 167.948 121.501 172.007 108.514 178.545C107.909 178.848 107.909 178.848 107.292 179.157C102.768 181.438 98.3073 183.771 94.0719 186.558C93.0734 187.128 93.0734 187.128 91.7866 187.128C96.2528 175.211 108.827 167.543 119.745 162.419C124.845 160.101 130.033 158.493 135.482 157.219C135.83 157.137 136.178 157.055 136.537 156.971C139.243 156.373 141.967 155.956 144.707 155.551C145.104 155.492 145.501 155.433 145.911 155.372C146.884 155.227 147.858 155.083 148.832 154.939C148.83 154.565 148.828 154.192 148.826 153.807C148.785 144.715 148.768 135.624 148.777 126.533C148.781 122.136 148.777 117.74 148.754 113.343C148.734 109.511 148.729 105.68 148.742 101.848C148.748 99.8185 148.747 97.7899 148.728 95.7607C148.71 93.8503 148.712 91.941 148.73 90.0306C148.733 89.3299 148.728 88.6291 148.716 87.9285C148.629 82.6356 148.629 82.6356 150.185 81.0102C151.288 80.3353 152.342 79.8573 153.55 79.4008C154.179 79.0696 154.805 78.7318 155.424 78.3832C156.005 78.0858 156.586 77.7901 157.169 77.4963C157.466 77.3405 157.763 77.1848 158.069 77.0243C160.26 75.9165 160.26 75.9165 161.699 76.3965Z" fill="#33658A"/>
<path d="M140.253 45.4946C140.302 58.3217 140.34 71.1488 140.363 83.976C140.366 85.4894 140.368 87.0028 140.371 88.5162C140.372 88.8175 140.372 89.1188 140.373 89.4292C140.382 94.3117 140.399 99.1941 140.419 104.077C140.439 109.084 140.451 114.092 140.455 119.099C140.458 121.913 140.465 124.726 140.48 127.54C140.495 130.186 140.499 132.832 140.496 135.478C140.497 136.451 140.501 137.424 140.509 138.398C140.52 139.722 140.517 141.047 140.511 142.371C140.518 142.76 140.524 143.149 140.53 143.549C140.518 144.532 140.493 145.402 140.253 146.355C138.853 147.562 137.584 147.822 135.777 148.045C133.198 148.419 130.784 149.098 128.299 149.873C127.055 150.193 126.085 150.246 124.813 150.218C124.725 137.905 124.656 125.592 124.616 113.279C124.611 111.825 124.606 110.371 124.601 108.917C124.6 108.628 124.599 108.339 124.598 108.04C124.581 103.354 124.55 98.6687 124.515 93.9828C124.479 89.1745 124.458 84.3664 124.449 79.558C124.444 76.8572 124.433 74.1567 124.404 71.456C124.378 68.9145 124.37 66.3737 124.376 63.8321C124.375 62.8988 124.367 61.9655 124.352 61.0323C124.246 53.9661 124.246 53.9661 125.655 52.1109C126.656 51.4273 127.527 51.0216 128.673 50.645C129.107 50.3925 129.542 50.14 129.989 49.8798C131.238 49.2192 132.487 48.5609 133.739 47.9088C134.178 47.6748 134.617 47.4408 135.069 47.1997C135.491 46.9789 135.913 46.7582 136.348 46.5307C136.728 46.3313 137.107 46.132 137.499 45.9265C138.538 45.4946 138.538 45.4946 140.253 45.4946Z" fill="#33658A"/>
<path d="M93.5023 183.266C94.0684 183.974 94.6346 184.682 95.2179 185.412C93.2342 187.129 93.2342 187.129 91.7866 187.129C92.3009 185.805 92.849 184.526 93.5023 183.266Z" fill="#333B41"/>
<path d="M40.7462 146.355C40.6047 146.638 40.4632 146.922 40.3173 147.213C38.6188 147.072 36.9204 146.93 35.1704 146.784C35.1704 146.643 35.1704 146.501 35.1704 146.355C37.1671 145.995 38.7607 145.919 40.7462 146.355Z" fill="#E7A53B"/>
<path d="M129.531 50.6448C129.531 51.0697 129.531 51.4946 129.531 51.9324C128.823 52.2156 128.115 52.4989 127.386 52.7907C127.103 52.5075 126.82 52.2242 126.528 51.9324C128.566 50.6448 128.566 50.6448 129.531 50.6448Z" fill="#3B4249"/>
</g>
<defs>
<clipPath id="clip0_51_51">
<rect width="181" height="197" fill="white"/>
</clipPath>
</defs>
</svg>
