<svg width="28" height="28" viewBox="0 0 28 28" fill="none" xmlns="http://www.w3.org/2000/svg">
<path d="M8.57031 3.5C8.08556 3.5 7.69531 3.89025 7.69531 4.375V20.125C7.69531 20.6098 8.08556 21 8.57031 21H10.3203C10.8051 21 11.1953 20.6098 11.1953 20.125V4.375C11.1953 3.89025 10.8051 3.5 10.3203 3.5H8.57031ZM13.8203 5.25C13.3356 5.25 12.9453 5.64025 12.9453 6.125V20.125C12.9453 20.6098 13.3356 21 13.8203 21H15.5703C16.0551 21 16.4453 20.6098 16.4453 20.125V6.125C16.4453 5.64025 16.0551 5.25 15.5703 5.25H13.8203ZM20.0311 6.9825C19.9706 6.98679 19.9108 6.99735 19.8526 7.014L18.1638 7.4655C18.0528 7.49534 17.9487 7.54676 17.8576 7.61683C17.7665 7.6869 17.69 7.77424 17.6326 7.87387C17.5753 7.97349 17.5381 8.08344 17.5232 8.19744C17.5084 8.31144 17.5161 8.42725 17.5461 8.53825L20.7136 20.3717C20.7434 20.483 20.7949 20.5872 20.8651 20.6785C20.9352 20.7697 21.0228 20.8463 21.1226 20.9037C21.2224 20.9611 21.3326 20.9982 21.4468 21.0129C21.561 21.0276 21.6769 21.0197 21.7881 20.9895L23.4768 20.5345C23.7003 20.4742 23.8907 20.3278 24.0065 20.1274C24.1223 19.927 24.1539 19.6889 24.0946 19.4653L20.9271 7.63175C20.875 7.4372 20.7575 7.26654 20.5943 7.14858C20.431 7.03062 20.2321 6.97083 20.0311 6.9825ZM3.32031 7C2.83556 7 2.44531 7.39025 2.44531 7.875V20.125C2.44531 20.6098 2.83556 21 3.32031 21H5.07031C5.55506 21 5.94531 20.6098 5.94531 20.125V7.875C5.94531 7.39025 5.55506 7 5.07031 7H3.32031ZM3.32031 22.75C3.08825 22.75 2.86569 22.8422 2.70159 23.0063C2.5375 23.1704 2.44531 23.3929 2.44531 23.625C2.44531 23.8571 2.5375 24.0796 2.70159 24.2437C2.86569 24.4078 3.08825 24.5 3.32031 24.5H24.3203C24.5524 24.5 24.7749 24.4078 24.939 24.2437C25.1031 24.0796 25.1953 23.8571 25.1953 23.625C25.1953 23.3929 25.1031 23.1704 24.939 23.0063C24.7749 22.8422 24.5524 22.75 24.3203 22.75H3.32031Z" fill="white"/>
</svg>
