<svg width="110" height="110" viewBox="0 0 110 110" fill="none" xmlns="http://www.w3.org/2000/svg">
<path d="M55 0C24.695 0 0 24.695 0 55C0 85.305 24.695 110 55 110C85.305 110 110 85.305 110 55C110 24.695 85.305 0 55 0ZM81.29 42.35L50.105 73.535C49.335 74.305 48.29 74.745 47.19 74.745C46.09 74.745 45.045 74.305 44.275 73.535L28.71 57.97C27.115 56.375 27.115 53.735 28.71 52.14C30.305 50.545 32.945 50.545 34.54 52.14L47.19 64.79L75.46 36.52C77.055 34.925 79.695 34.925 81.29 36.52C82.885 38.115 82.885 40.7 81.29 42.35Z" fill="#F6AE2D"/>
</svg>
