<svg width="28" height="28" viewBox="0 0 28 28" fill="none" xmlns="http://www.w3.org/2000/svg">
<path d="M7.54192 19.9136C4.37512 16.5088 4.43112 11.172 7.72112 7.85822C9.01028 6.55351 10.687 5.70092 12.5007 5.42782L12.4041 2.52002C9.85773 2.82614 7.4903 3.98641 5.68832 5.81142C1.27972 10.2494 1.22652 17.416 5.51612 21.9548L3.07872 24.4076L10.7927 24.829L10.7717 16.6614L7.54192 19.9136ZM16.8477 3.17102L16.8687 11.3386L20.0985 8.08782C23.2653 11.4954 23.2093 16.8322 19.9193 20.1432C18.6301 21.4479 16.9535 22.3005 15.1397 22.5736L15.2363 25.48C17.7824 25.1724 20.1497 24.013 21.9535 22.19C26.3607 17.7492 26.4139 10.5826 22.1243 6.04662L24.5617 3.59102L16.8477 3.17102Z" fill="white"/>
</svg>
