<svg width="40" height="40" viewBox="0 0 40 40" fill="none" xmlns="http://www.w3.org/2000/svg">
<path d="M37.4478 32.4999H34.9512V21.2499L35.3164 21.6155C35.551 21.8501 35.8691 21.9817 36.2006 21.9814C36.5321 21.9811 36.85 21.8489 37.0842 21.614C37.3184 21.379 37.4499 21.0605 37.4496 20.7285C37.4493 20.3965 37.3173 20.0782 37.0827 19.8437L21.7368 4.48117C21.2686 4.01268 20.6339 3.74951 19.972 3.74951C19.3102 3.74951 18.6754 4.01268 18.2073 4.48117L2.86143 19.8437C2.62741 20.0782 2.49602 20.3963 2.49617 20.7278C2.49632 21.0594 2.62799 21.3773 2.86221 21.6116C3.09644 21.846 3.41403 21.9775 3.74513 21.9774C4.07623 21.9773 4.39371 21.8454 4.62773 21.6109L4.99285 21.2499V32.4999H2.49631C2.16525 32.4999 1.84775 32.6316 1.61366 32.866C1.37956 33.1005 1.24805 33.4184 1.24805 33.7499C1.24805 34.0814 1.37956 34.3994 1.61366 34.6338C1.84775 34.8682 2.16525 34.9999 2.49631 34.9999H37.4478C37.7788 34.9999 38.0963 34.8682 38.3304 34.6338C38.5645 34.3994 38.696 34.0814 38.696 33.7499C38.696 33.4184 38.5645 33.1005 38.3304 32.866C38.0963 32.6316 37.7788 32.4999 37.4478 32.4999ZM7.48938 18.7499L19.972 6.24992L32.4547 18.7499V32.4999H24.9651V23.7499C24.9651 23.4184 24.8336 23.1005 24.5995 22.866C24.3654 22.6316 24.0479 22.4999 23.7168 22.4999H16.2272C15.8962 22.4999 15.5787 22.6316 15.3446 22.866C15.1105 23.1005 14.979 23.4184 14.979 23.7499V32.4999H7.48938V18.7499ZM22.4686 32.4999H17.4755V24.9999H22.4686V32.4999Z" fill="white"/>
</svg>
