<svg width="415" height="418" viewBox="0 0 415 418" fill="none" xmlns="http://www.w3.org/2000/svg">
<g clip-path="url(#clip0_175_621)">
<path d="M107.979 29.16C108.476 29.1505 108.974 29.1411 109.486 29.1313C114.165 29.671 117.85 31.7627 121.752 34.2727C122.262 34.5939 122.771 34.915 123.296 35.2459C124.382 35.9308 125.466 36.6178 126.55 37.3067C128.759 38.7079 130.98 40.0903 133.202 41.4728C134.903 42.5317 136.603 43.5928 138.303 44.6546C138.872 45.0101 139.441 45.3656 140.027 45.7319C140.605 46.0927 141.182 46.4535 141.777 46.8253C144.167 48.3183 146.556 49.8109 148.946 51.3033C149.479 51.6363 150.012 51.9693 150.561 52.3123C155.846 55.6129 161.158 58.8697 166.477 62.1171C168.36 63.2686 168.36 63.2686 170.242 64.42C171.194 64.9998 171.194 64.9998 172.165 65.5913C181.649 71.3987 181.649 71.3987 183.027 74.4691C183.271 76.389 183.249 78.294 183.231 80.227C183.233 80.8123 183.234 81.3976 183.235 82.0006C183.238 83.9644 183.229 85.928 183.22 87.8918C183.219 89.2984 183.219 90.705 183.22 92.1117C183.221 95.1414 183.216 98.1711 183.206 101.201C183.193 105.581 183.188 109.962 183.186 114.342C183.182 121.45 183.171 128.557 183.155 135.664C183.14 142.567 183.128 149.471 183.12 156.375C183.12 157.013 183.12 157.013 183.119 157.664C183.117 159.8 183.115 161.935 183.113 164.07C183.095 181.78 183.065 199.491 183.027 217.202C180.725 216.716 179.158 215.585 177.271 214.24C164.475 205.485 150.234 199.866 135.279 196.081C134.908 195.986 134.536 195.891 134.154 195.794C127.157 194.027 120.189 192.843 112.958 192.943C112.942 194.718 112.932 196.492 112.923 198.267C112.918 198.774 112.914 199.28 112.909 199.802C112.907 200.284 112.905 200.766 112.903 201.262C112.9 201.708 112.897 202.154 112.894 202.614C112.843 203.671 112.843 203.671 113.523 204.226C114.725 204.373 115.927 204.517 117.131 204.647C139.543 207.169 161.596 215.55 177.942 231.306C178.367 231.701 178.792 232.097 179.231 232.505C182.067 235.205 184.297 238.175 186.418 241.461C186.893 242.19 186.893 242.19 187.378 242.935C188.113 244.281 188.113 244.281 188.113 245.974C185.654 245.247 183.72 244.305 181.579 242.906C159.001 228.685 132.233 220.124 105.577 218.647C102.159 218.395 100.346 217.149 98.0899 214.592C96.6997 212.639 96.5 211.647 96.4954 209.274C96.4929 208.667 96.4904 208.06 96.4878 207.434C96.4879 206.762 96.488 206.09 96.4881 205.397C96.486 204.687 96.4839 203.977 96.4818 203.245C96.4761 201.268 96.474 199.291 96.4725 197.313C96.4703 195.183 96.4649 193.053 96.46 190.923C96.4488 185.775 96.4431 180.627 96.4381 175.479C96.4356 173.056 96.4326 170.632 96.4296 168.209C96.42 160.156 96.4118 152.102 96.4077 144.049C96.4067 141.958 96.4056 139.867 96.4045 137.776C96.4042 137.257 96.4039 136.737 96.4036 136.201C96.3989 127.782 96.3846 119.363 96.3663 110.944C96.3476 102.304 96.3374 93.6639 96.3356 85.0237C96.3344 80.1712 96.3294 75.3187 96.315 70.4661C96.3027 66.3336 96.2982 62.201 96.3037 58.0684C96.3062 55.9598 96.3052 53.8514 96.2942 51.7428C96.2824 49.4564 96.2882 47.1705 96.2956 44.8841C96.2894 44.2181 96.2832 43.552 96.2769 42.8658C96.3108 38.5676 96.8509 35.9874 99.8381 32.7631C100.159 32.505 100.479 32.2468 100.809 31.9808C101.13 31.7154 101.45 31.4499 101.781 31.1764C103.872 29.6975 105.399 29.1711 107.979 29.16Z" fill="#F6AE2D"/>
<path d="M223.713 15.2324C223.713 77.0418 223.713 138.851 223.713 202.534C219.61 204.768 215.508 207.002 211.281 209.304C208.469 211.174 208.469 211.174 205.712 213.123C205.112 213.466 205.112 213.466 204.5 213.817C203.941 213.631 203.381 213.445 202.805 213.253C202.753 189.583 202.713 165.914 202.69 142.245C202.687 139.452 202.684 136.659 202.681 133.866C202.68 133.31 202.68 132.754 202.679 132.181C202.669 123.172 202.651 114.163 202.631 105.154C202.609 95.9133 202.597 86.6726 202.592 77.4319C202.589 71.7275 202.579 66.0233 202.561 60.319C202.549 56.41 202.545 52.5011 202.548 48.5921C202.55 46.3351 202.548 44.0782 202.536 41.8213C202.525 39.7558 202.524 37.6906 202.532 35.6251C202.533 34.5222 202.523 33.4194 202.513 32.3166C202.518 31.6625 202.522 31.0084 202.527 30.3344C202.526 29.7699 202.525 29.2055 202.524 28.6239C202.885 26.6378 203.682 25.7063 205.065 24.259C206.756 23.1709 206.756 23.1709 208.707 22.1522C209.053 21.9697 209.398 21.7872 209.754 21.5992C210.848 21.0224 211.947 20.4545 213.047 19.8867C213.79 19.4973 214.532 19.1072 215.274 18.7166C221.906 15.2324 221.906 15.2324 223.713 15.2324Z" fill="#33658A"/>
<path d="M284.175 100.42C284.215 114.853 284.245 129.285 284.263 143.718C284.272 150.419 284.284 157.12 284.303 163.821C284.32 169.661 284.331 175.501 284.335 181.341C284.337 184.434 284.342 187.527 284.354 190.62C284.366 193.53 284.369 196.441 284.367 199.352C284.367 200.42 284.371 201.489 284.377 202.557C284.386 204.016 284.384 205.475 284.379 206.934C284.384 207.356 284.389 207.779 284.394 208.214C284.366 211.49 283.499 213.681 281.456 216.214C279.065 218.124 276.329 218.472 273.346 218.691C272.674 218.746 272.002 218.801 271.309 218.858C270.59 218.916 269.871 218.975 269.13 219.035C250.083 220.762 231.216 226.097 214.106 234.691C213.309 235.089 213.309 235.089 212.496 235.496C206.535 238.495 200.659 241.56 195.079 245.225C193.764 245.974 193.764 245.974 192.068 245.974C197.952 230.308 214.518 220.23 228.902 213.494C235.621 210.447 242.457 208.334 249.635 206.659C250.094 206.551 250.553 206.444 251.026 206.333C254.59 205.547 258.18 204.999 261.789 204.467C262.312 204.389 262.836 204.311 263.375 204.231C264.657 204.041 265.94 203.851 267.223 203.662C267.221 203.171 267.218 202.68 267.216 202.173C267.162 190.223 267.139 178.273 267.151 166.323C267.156 160.544 267.151 154.765 267.12 148.986C267.094 143.949 267.087 138.912 267.104 133.875C267.113 131.208 267.111 128.541 267.086 125.874C267.062 123.363 267.065 120.853 267.089 118.342C267.093 117.421 267.087 116.5 267.071 115.579C266.957 108.622 266.957 108.622 269.005 106.485C270.459 105.598 271.848 104.97 273.439 104.37C274.268 103.934 275.092 103.49 275.909 103.032C276.673 102.641 277.439 102.252 278.207 101.866C278.598 101.661 278.99 101.457 279.393 101.246C282.279 99.7896 282.279 99.7896 284.175 100.42Z" fill="#33658A"/>
<path d="M255.922 59.801C255.986 76.6618 256.036 93.5226 256.066 110.383C256.07 112.373 256.073 114.362 256.077 116.351C256.078 116.747 256.078 117.143 256.079 117.552C256.091 123.969 256.114 130.387 256.14 136.805C256.166 143.387 256.182 149.969 256.188 156.552C256.191 160.25 256.2 163.949 256.22 167.647C256.24 171.125 256.246 174.603 256.241 178.081C256.242 179.36 256.248 180.639 256.259 181.919C256.272 183.66 256.269 185.401 256.261 187.142C256.27 187.653 256.278 188.164 256.286 188.69C256.271 189.982 256.237 191.126 255.922 192.379C254.077 193.964 252.405 194.307 250.024 194.6C246.627 195.091 243.446 195.983 240.173 197.002C238.533 197.423 237.255 197.493 235.579 197.456C235.463 181.271 235.373 165.086 235.319 148.901C235.313 146.99 235.306 145.079 235.3 143.168C235.298 142.788 235.297 142.407 235.296 142.015C235.274 135.856 235.234 129.696 235.187 123.537C235.139 117.217 235.111 110.897 235.101 104.576C235.094 101.026 235.078 97.4763 235.041 93.9263C235.007 90.5857 234.996 87.2458 235.004 83.905C235.003 82.6782 234.992 81.4514 234.973 80.2248C234.833 70.9364 234.833 70.9364 236.689 68.4979C238.008 67.5993 239.155 67.0661 240.665 66.571C241.237 66.2391 241.81 65.9072 242.399 65.5652C244.044 64.6968 245.689 63.8316 247.34 62.9744C247.918 62.6668 248.496 62.3592 249.091 62.0422C249.647 61.7521 250.203 61.4619 250.776 61.1629C251.277 60.9009 251.777 60.6388 252.292 60.3688C253.661 59.801 253.661 59.801 255.922 59.801Z" fill="#33658A"/>
<path d="M194.329 240.896C195.075 241.827 195.82 242.758 196.589 243.717C193.975 245.974 193.975 245.974 192.068 245.974C192.746 244.235 193.468 242.554 194.329 240.896Z" fill="#333B41"/>
<path d="M124.825 192.379C124.638 192.751 124.452 193.123 124.26 193.507C122.022 193.321 119.784 193.135 117.479 192.943C117.479 192.757 117.479 192.571 117.479 192.379C120.11 191.906 122.209 191.805 124.825 192.379Z" fill="#E7A53B"/>
<path d="M241.795 66.571C241.795 67.1296 241.795 67.6881 241.795 68.2635C240.862 68.6359 239.93 69.0082 238.969 69.3918C238.597 69.0195 238.224 68.6472 237.839 68.2635C240.523 66.571 240.523 66.571 241.795 66.571Z" fill="#3B4249"/>
</g>
<path d="M71.2 305.692V336.832H83.74L83.5 332.632C83.46 332.032 83.74 331.732 84.34 331.732H87.7C88.3 331.732 88.6 332.032 88.6 332.632V344.452C88.6 345.052 88.3 345.352 87.7 345.352H84.34C83.74 345.352 83.46 345.052 83.5 344.452L83.68 341.572H61.3C60.7 341.572 60.4 341.272 60.4 340.672V337.732C60.4 337.132 60.7 336.832 61.3 336.832H64.48V305.692H61.3C60.7 305.692 60.4 305.392 60.4 304.792V301.732C60.4 301.132 60.7 300.832 61.3 300.832H75.58C76.18 300.832 76.48 301.132 76.48 301.732V304.792C76.48 305.392 76.18 305.692 75.58 305.692H71.2ZM137.895 336.832H141.675C142.275 336.832 142.575 337.132 142.575 337.732V340.672C142.575 341.272 142.275 341.572 141.675 341.572H127.395C126.795 341.572 126.495 341.272 126.495 340.672V337.732C126.495 337.132 126.795 336.832 127.395 336.832C127.395 336.832 128.655 336.832 131.175 336.832V316.792H127.935C127.335 316.792 127.035 316.492 127.035 315.892V312.772C127.035 312.172 127.335 311.872 127.935 311.872H136.995C137.595 311.872 137.895 312.172 137.895 312.772V336.832ZM130.635 306.532C129.875 305.732 129.495 304.712 129.495 303.472C129.495 302.232 129.875 301.212 130.635 300.412C131.435 299.572 132.475 299.152 133.755 299.152C135.075 299.152 136.115 299.572 136.875 300.412C137.675 301.212 138.075 302.232 138.075 303.472C138.075 304.712 137.675 305.732 136.875 306.532C136.075 307.332 135.015 307.732 133.695 307.732C132.415 307.732 131.395 307.332 130.635 306.532ZM181.584 340.672V337.732C181.584 337.132 181.884 336.832 182.484 336.832H185.604V305.632H182.484C181.884 305.632 181.584 305.332 181.584 304.732V301.732C181.584 301.132 181.884 300.832 182.484 300.832C187.604 300.592 191.864 300.472 195.264 300.472C205.664 300.472 210.864 304.192 210.864 311.632C210.864 314.232 210.204 316.532 208.884 318.532C207.564 320.492 205.804 321.992 203.604 323.032L210.624 336.832H214.344C214.944 336.832 215.244 337.132 215.244 337.732V340.672C215.244 341.272 214.944 341.572 214.344 341.572H206.424C205.824 341.572 205.384 341.312 205.104 340.792L196.944 324.652H195.744C194.464 324.652 193.324 324.592 192.324 324.472V336.832H196.104C196.704 336.832 197.004 337.132 197.004 337.732V340.672C197.004 341.272 196.704 341.572 196.104 341.572H182.484C181.884 341.572 181.584 341.272 181.584 340.672ZM192.324 305.452V319.912C192.644 319.952 193.104 319.972 193.704 319.972C196.944 319.972 199.464 319.332 201.264 318.052C203.064 316.772 203.964 314.852 203.964 312.292C203.964 307.732 200.804 305.452 194.484 305.452H192.324Z" fill="#33658A"/>
<path d="M254.748 321.412C254.748 317.572 255.308 314.192 256.428 311.272C257.588 308.352 259.108 306.092 260.988 304.492C264.668 301.372 268.828 299.812 273.468 299.812C278.148 299.812 282.348 300.832 286.068 302.872C286.588 303.152 286.848 303.552 286.848 304.072V311.812C286.848 312.412 286.548 312.712 285.948 312.712H282.588C281.988 312.712 281.708 312.412 281.748 311.812L281.928 307.612C279.448 305.932 276.628 305.092 273.468 305.092C265.788 305.092 261.948 310.212 261.948 320.452C261.948 323.652 262.328 326.452 263.088 328.852C263.848 331.212 265.188 333.172 267.108 334.732C269.028 336.292 271.588 337.072 274.788 337.072C277.988 337.072 280.388 336.432 281.988 335.152L281.748 330.952C281.708 330.352 281.988 330.052 282.588 330.052H286.008C286.608 330.052 286.908 330.352 286.908 330.952V338.572C286.908 339.132 286.708 339.512 286.308 339.712C282.788 341.432 278.768 342.292 274.248 342.292C267.688 342.292 262.788 340.432 259.548 336.712C256.348 332.992 254.748 327.892 254.748 321.412ZM342.894 299.812C345.854 299.812 348.814 300.252 351.774 301.132C352.334 301.292 352.614 301.652 352.614 302.212V310.492C352.614 311.092 352.314 311.392 351.714 311.392H348.354C347.754 311.392 347.474 311.092 347.514 310.492L347.694 306.472C346.094 305.512 344.314 305.032 342.354 305.032C340.394 305.032 338.814 305.512 337.614 306.472C336.454 307.392 335.874 308.692 335.874 310.372C335.874 312.052 336.414 313.432 337.494 314.512C338.574 315.552 340.114 316.452 342.114 317.212C344.114 317.972 345.454 318.492 346.134 318.772C346.814 319.052 347.794 319.572 349.074 320.332C350.394 321.092 351.354 321.852 351.954 322.612C352.594 323.332 353.174 324.312 353.694 325.552C354.254 326.792 354.534 328.172 354.534 329.692C354.534 333.652 353.274 336.752 350.754 338.992C348.274 341.192 344.734 342.292 340.134 342.292C336.734 342.292 333.374 341.772 330.054 340.732C329.494 340.572 329.214 340.212 329.214 339.652V330.112C329.214 329.512 329.514 329.212 330.114 329.212H333.474C334.074 329.212 334.354 329.512 334.314 330.112L334.074 335.092C334.594 335.572 335.454 336.032 336.654 336.472C337.894 336.872 339.154 337.072 340.434 337.072C345.394 337.072 347.874 335.052 347.874 331.012C347.874 329.052 347.214 327.512 345.894 326.392C344.574 325.232 342.854 324.312 340.734 323.632C338.654 322.912 337.074 322.292 335.994 321.772C334.914 321.212 333.814 320.492 332.694 319.612C330.454 317.932 329.334 315.352 329.334 311.872C329.334 308.392 330.534 305.512 332.934 303.232C335.334 300.952 338.654 299.812 342.894 299.812Z" fill="#F6AE2D"/>
<line x1="148.873" y1="370.179" x2="241.095" y2="370.179" stroke="#F6AE2D"/>
<path d="M40.61 401.969V391.469H41.87V400.964H46.76V401.969H40.61ZM48.4909 401.969V391.469H49.7509V401.969H48.4909ZM51.9772 401.969V391.469H55.5922C56.5822 391.469 57.3622 391.709 57.9322 392.189C58.5122 392.659 58.8022 393.274 58.8022 394.034C58.8022 394.614 58.6422 395.104 58.3222 395.504C58.0122 395.904 57.6322 396.174 57.1822 396.314C57.6422 396.454 58.0272 396.654 58.3372 396.914C58.6472 397.174 58.8822 397.479 59.0422 397.829C59.2022 398.169 59.2822 398.554 59.2822 398.984C59.2822 399.564 59.1622 400.079 58.9222 400.529C58.6822 400.979 58.3122 401.334 57.8122 401.594C57.3222 401.844 56.6972 401.969 55.9372 401.969H51.9772ZM53.2372 400.919H55.5472C56.3172 400.919 56.9172 400.759 57.3472 400.439C57.7872 400.119 58.0072 399.609 58.0072 398.909C58.0072 398.199 57.7722 397.684 57.3022 397.364C56.8322 397.044 56.2372 396.884 55.5172 396.884H53.2372V400.919ZM53.2372 395.879H55.5022C56.1522 395.879 56.6522 395.729 57.0022 395.429C57.3522 395.119 57.5272 394.709 57.5272 394.199C57.5272 393.669 57.3522 393.259 57.0022 392.969C56.6522 392.669 56.1372 392.519 55.4572 392.519H53.2372V395.879ZM61.0006 401.969V391.469H64.1056C64.8456 391.469 65.4756 391.579 65.9956 391.799C66.5156 392.009 66.9156 392.329 67.1956 392.759C67.4756 393.189 67.6156 393.734 67.6156 394.394C67.6156 395.214 67.4006 395.834 66.9706 396.254C66.5506 396.674 65.9756 396.949 65.2456 397.079L68.2606 401.969H66.7006L64.0006 397.319H62.2606V401.969H61.0006ZM62.2606 396.254H64.0756C64.6356 396.254 65.0806 396.189 65.4106 396.059C65.7406 395.919 65.9756 395.709 66.1156 395.429C66.2556 395.149 66.3256 394.804 66.3256 394.394C66.3256 393.974 66.2556 393.624 66.1156 393.344C65.9756 393.064 65.7406 392.859 65.4106 392.729C65.0806 392.589 64.6356 392.519 64.0756 392.519H62.2606V396.254ZM69.2322 401.969L73.1022 391.469H74.4372L78.2922 401.969H76.9572L75.9972 399.269H71.5272L70.5522 401.969H69.2322ZM71.9022 398.249H75.6222L73.7622 393.059L71.9022 398.249ZM79.8532 401.969V391.469H82.9582C83.6982 391.469 84.3282 391.579 84.8482 391.799C85.3682 392.009 85.7682 392.329 86.0482 392.759C86.3282 393.189 86.4682 393.734 86.4682 394.394C86.4682 395.214 86.2532 395.834 85.8232 396.254C85.4032 396.674 84.8282 396.949 84.0982 397.079L87.1132 401.969H85.5532L82.8532 397.319H81.1132V401.969H79.8532ZM81.1132 396.254H82.9282C83.4882 396.254 83.9332 396.189 84.2632 396.059C84.5932 395.919 84.8282 395.709 84.9682 395.429C85.1082 395.149 85.1782 394.804 85.1782 394.394C85.1782 393.974 85.1082 393.624 84.9682 393.344C84.8282 393.064 84.5932 392.859 84.2632 392.729C83.9332 392.589 83.4882 392.519 82.9282 392.519H81.1132V396.254ZM90.9007 401.969V397.979L87.4807 391.469H88.9057L91.5307 396.779L94.1557 391.469H95.5657L92.1607 397.979V401.969H90.9007ZM100.947 401.969V391.469H104.052C104.792 391.469 105.422 391.579 105.942 391.799C106.462 392.009 106.862 392.329 107.142 392.759C107.422 393.189 107.562 393.734 107.562 394.394C107.562 395.214 107.347 395.834 106.917 396.254C106.497 396.674 105.922 396.949 105.192 397.079L108.207 401.969H106.647L103.947 397.319H102.207V401.969H100.947ZM102.207 396.254H104.022C104.582 396.254 105.027 396.189 105.357 396.059C105.687 395.919 105.922 395.709 106.062 395.429C106.202 395.149 106.272 394.804 106.272 394.394C106.272 393.974 106.202 393.624 106.062 393.344C105.922 393.064 105.687 392.859 105.357 392.729C105.027 392.589 104.582 392.519 104.022 392.519H102.207V396.254ZM109.839 401.969V391.469H116.334V392.504H111.099V395.909H115.674V396.929H111.099V400.934H116.334V401.969H109.839ZM121.65 402.149C120.94 402.149 120.295 402.019 119.715 401.759C119.145 401.499 118.69 401.124 118.35 400.634C118.02 400.134 117.855 399.529 117.855 398.819H119.175C119.175 399.519 119.405 400.074 119.865 400.484C120.325 400.884 120.92 401.084 121.65 401.084C122.29 401.084 122.82 400.929 123.24 400.619C123.67 400.309 123.885 399.869 123.885 399.299C123.885 398.909 123.815 398.599 123.675 398.369C123.545 398.129 123.345 397.934 123.075 397.784C122.805 397.624 122.465 397.474 122.055 397.334C121.645 397.194 121.16 397.029 120.6 396.839C120.1 396.659 119.67 396.454 119.31 396.224C118.96 395.994 118.69 395.714 118.5 395.384C118.31 395.044 118.215 394.639 118.215 394.169C118.205 393.549 118.345 393.029 118.635 392.609C118.935 392.179 119.335 391.854 119.835 391.634C120.345 391.404 120.905 391.289 121.515 391.289C122.135 391.289 122.69 391.404 123.18 391.634C123.68 391.854 124.08 392.184 124.38 392.624C124.68 393.054 124.835 393.579 124.845 394.199H123.525C123.525 393.669 123.335 393.234 122.955 392.894C122.575 392.544 122.08 392.369 121.47 392.369C120.93 392.349 120.47 392.484 120.09 392.774C119.71 393.064 119.52 393.489 119.52 394.049C119.52 394.419 119.595 394.714 119.745 394.934C119.905 395.144 120.175 395.329 120.555 395.489C120.935 395.649 121.46 395.844 122.13 396.074C122.61 396.234 123.04 396.404 123.42 396.584C123.8 396.754 124.12 396.959 124.38 397.199C124.64 397.429 124.84 397.709 124.98 398.039C125.12 398.359 125.19 398.754 125.19 399.224C125.19 399.854 125.025 400.389 124.695 400.829C124.375 401.259 123.945 401.589 123.405 401.819C122.875 402.039 122.29 402.149 121.65 402.149ZM131.747 402.149C130.947 402.149 130.227 402.014 129.587 401.744C128.947 401.464 128.402 401.079 127.952 400.589C127.502 400.099 127.157 399.524 126.917 398.864C126.687 398.204 126.572 397.489 126.572 396.719C126.572 395.949 126.687 395.234 126.917 394.574C127.157 393.914 127.502 393.339 127.952 392.849C128.402 392.359 128.942 391.979 129.572 391.709C130.212 391.429 130.937 391.289 131.747 391.289C132.547 391.289 133.262 391.424 133.892 391.694C134.532 391.954 135.077 392.329 135.527 392.819C135.977 393.299 136.322 393.874 136.562 394.544C136.802 395.204 136.922 395.929 136.922 396.719C136.922 397.509 136.802 398.239 136.562 398.909C136.322 399.569 135.977 400.144 135.527 400.634C135.077 401.114 134.532 401.489 133.892 401.759C133.262 402.019 132.547 402.149 131.747 402.149ZM131.747 401.039C132.567 401.039 133.267 400.854 133.847 400.484C134.427 400.114 134.867 399.604 135.167 398.954C135.477 398.304 135.632 397.559 135.632 396.719C135.632 395.859 135.477 395.109 135.167 394.469C134.867 393.819 134.427 393.314 133.847 392.954C133.267 392.594 132.567 392.414 131.747 392.414C130.937 392.414 130.242 392.599 129.662 392.969C129.082 393.339 128.637 393.849 128.327 394.499C128.017 395.139 127.862 395.879 127.862 396.719C127.862 397.549 128.017 398.294 128.327 398.954C128.637 399.604 129.082 400.114 129.662 400.484C130.242 400.854 130.937 401.039 131.747 401.039ZM142.535 402.149C141.615 402.149 140.87 401.964 140.3 401.594C139.73 401.214 139.31 400.719 139.04 400.109C138.78 399.489 138.65 398.819 138.65 398.099V391.469H139.91V398.114C139.91 399.134 140.155 399.874 140.645 400.334C141.135 400.794 141.775 401.024 142.565 401.024C143.355 401.024 143.99 400.794 144.47 400.334C144.95 399.874 145.19 399.134 145.19 398.114V391.469H146.45V398.099C146.45 398.869 146.335 399.514 146.105 400.034C145.875 400.554 145.565 400.969 145.175 401.279C144.795 401.589 144.375 401.814 143.915 401.954C143.455 402.084 142.995 402.149 142.535 402.149ZM148.584 401.969V391.469H151.689C152.429 391.469 153.059 391.579 153.579 391.799C154.099 392.009 154.499 392.329 154.779 392.759C155.059 393.189 155.199 393.734 155.199 394.394C155.199 395.214 154.984 395.834 154.554 396.254C154.134 396.674 153.559 396.949 152.829 397.079L155.844 401.969H154.284L151.584 397.319H149.844V401.969H148.584ZM149.844 396.254H151.659C152.219 396.254 152.664 396.189 152.994 396.059C153.324 395.919 153.559 395.709 153.699 395.429C153.839 395.149 153.909 394.804 153.909 394.394C153.909 393.974 153.839 393.624 153.699 393.344C153.559 393.064 153.324 392.859 152.994 392.729C152.664 392.589 152.219 392.519 151.659 392.519H149.844V396.254ZM161.787 402.149C160.727 402.149 159.822 401.914 159.072 401.444C158.322 400.964 157.752 400.314 157.362 399.494C156.972 398.674 156.777 397.749 156.777 396.719C156.777 395.699 156.967 394.779 157.347 393.959C157.737 393.139 158.307 392.489 159.057 392.009C159.807 391.529 160.717 391.289 161.787 391.289C162.987 391.289 163.962 391.579 164.712 392.159C165.472 392.729 165.957 393.529 166.167 394.559H164.772C164.612 393.909 164.282 393.389 163.782 392.999C163.292 392.599 162.627 392.399 161.787 392.399C160.957 392.399 160.267 392.594 159.717 392.984C159.167 393.364 158.752 393.879 158.472 394.529C158.202 395.179 158.067 395.909 158.067 396.719C158.067 397.549 158.207 398.289 158.487 398.939C158.777 399.589 159.197 400.104 159.747 400.484C160.297 400.854 160.977 401.039 161.787 401.039C162.627 401.039 163.292 400.849 163.782 400.469C164.282 400.079 164.612 399.564 164.772 398.924H166.167C165.957 399.934 165.472 400.724 164.712 401.294C163.962 401.864 162.987 402.149 161.787 402.149ZM167.978 401.969V391.469H174.473V392.504H169.238V395.909H173.813V396.929H169.238V400.934H174.473V401.969H167.978ZM179.79 402.149C179.08 402.149 178.435 402.019 177.855 401.759C177.285 401.499 176.83 401.124 176.49 400.634C176.16 400.134 175.995 399.529 175.995 398.819H177.315C177.315 399.519 177.545 400.074 178.005 400.484C178.465 400.884 179.06 401.084 179.79 401.084C180.43 401.084 180.96 400.929 181.38 400.619C181.81 400.309 182.025 399.869 182.025 399.299C182.025 398.909 181.955 398.599 181.815 398.369C181.685 398.129 181.485 397.934 181.215 397.784C180.945 397.624 180.605 397.474 180.195 397.334C179.785 397.194 179.3 397.029 178.74 396.839C178.24 396.659 177.81 396.454 177.45 396.224C177.1 395.994 176.83 395.714 176.64 395.384C176.45 395.044 176.355 394.639 176.355 394.169C176.345 393.549 176.485 393.029 176.775 392.609C177.075 392.179 177.475 391.854 177.975 391.634C178.485 391.404 179.045 391.289 179.655 391.289C180.275 391.289 180.83 391.404 181.32 391.634C181.82 391.854 182.22 392.184 182.52 392.624C182.82 393.054 182.975 393.579 182.985 394.199H181.665C181.665 393.669 181.475 393.234 181.095 392.894C180.715 392.544 180.22 392.369 179.61 392.369C179.07 392.349 178.61 392.484 178.23 392.774C177.85 393.064 177.66 393.489 177.66 394.049C177.66 394.419 177.735 394.714 177.885 394.934C178.045 395.144 178.315 395.329 178.695 395.489C179.075 395.649 179.6 395.844 180.27 396.074C180.75 396.234 181.18 396.404 181.56 396.584C181.94 396.754 182.26 396.959 182.52 397.199C182.78 397.429 182.98 397.709 183.12 398.039C183.26 398.359 183.33 398.754 183.33 399.224C183.33 399.854 183.165 400.389 182.835 400.829C182.515 401.259 182.085 401.589 181.545 401.819C181.015 402.039 180.43 402.149 179.79 402.149ZM188.427 401.969L192.297 391.469H193.632L197.487 401.969H196.152L195.192 399.269H190.722L189.747 401.969H188.427ZM191.097 398.249H194.817L192.957 393.059L191.097 398.249ZM199.048 401.969V391.469H200.308L205.903 399.884V391.469H207.163V401.969H205.903L200.308 393.554V401.969H199.048ZM209.389 401.969V391.469H212.614C213.854 391.469 214.869 391.684 215.659 392.114C216.459 392.534 217.049 393.139 217.429 393.929C217.819 394.709 218.014 395.649 218.014 396.749C218.014 397.829 217.819 398.759 217.429 399.539C217.049 400.319 216.459 400.919 215.659 401.339C214.869 401.759 213.854 401.969 212.614 401.969H209.389ZM210.649 400.919H212.584C213.584 400.919 214.384 400.759 214.984 400.439C215.594 400.109 216.034 399.634 216.304 399.014C216.574 398.384 216.709 397.629 216.709 396.749C216.709 395.319 216.379 394.259 215.719 393.569C215.059 392.869 214.014 392.519 212.584 392.519H210.649V400.919ZM228.408 402.149C227.348 402.149 226.443 401.914 225.693 401.444C224.943 400.964 224.373 400.314 223.983 399.494C223.593 398.674 223.398 397.749 223.398 396.719C223.398 395.699 223.588 394.779 223.968 393.959C224.358 393.139 224.928 392.489 225.678 392.009C226.428 391.529 227.338 391.289 228.408 391.289C229.608 391.289 230.583 391.579 231.333 392.159C232.093 392.729 232.578 393.529 232.788 394.559H231.393C231.233 393.909 230.903 393.389 230.403 392.999C229.913 392.599 229.248 392.399 228.408 392.399C227.578 392.399 226.888 392.594 226.338 392.984C225.788 393.364 225.373 393.879 225.093 394.529C224.823 395.179 224.688 395.909 224.688 396.719C224.688 397.549 224.828 398.289 225.108 398.939C225.398 399.589 225.818 400.104 226.368 400.484C226.918 400.854 227.598 401.039 228.408 401.039C229.248 401.039 229.913 400.849 230.403 400.469C230.903 400.079 231.233 399.564 231.393 398.924H232.788C232.578 399.934 232.093 400.724 231.333 401.294C230.583 401.864 229.608 402.149 228.408 402.149ZM234.599 401.969V391.469H235.859V401.969H234.599ZM238.086 401.969V391.469H241.191C241.931 391.469 242.561 391.579 243.081 391.799C243.601 392.009 244.001 392.329 244.281 392.759C244.561 393.189 244.701 393.734 244.701 394.394C244.701 395.214 244.486 395.834 244.056 396.254C243.636 396.674 243.061 396.949 242.331 397.079L245.346 401.969H243.786L241.086 397.319H239.346V401.969H238.086ZM239.346 396.254H241.161C241.721 396.254 242.166 396.189 242.496 396.059C242.826 395.919 243.061 395.709 243.201 395.429C243.341 395.149 243.411 394.804 243.411 394.394C243.411 393.974 243.341 393.624 243.201 393.344C243.061 393.064 242.826 392.859 242.496 392.729C242.166 392.589 241.721 392.519 241.161 392.519H239.346V396.254ZM251.289 402.149C250.229 402.149 249.324 401.914 248.574 401.444C247.824 400.964 247.254 400.314 246.864 399.494C246.474 398.674 246.279 397.749 246.279 396.719C246.279 395.699 246.469 394.779 246.849 393.959C247.239 393.139 247.809 392.489 248.559 392.009C249.309 391.529 250.219 391.289 251.289 391.289C252.489 391.289 253.464 391.579 254.214 392.159C254.974 392.729 255.459 393.529 255.669 394.559H254.274C254.114 393.909 253.784 393.389 253.284 392.999C252.794 392.599 252.129 392.399 251.289 392.399C250.459 392.399 249.769 392.594 249.219 392.984C248.669 393.364 248.254 393.879 247.974 394.529C247.704 395.179 247.569 395.909 247.569 396.719C247.569 397.549 247.709 398.289 247.989 398.939C248.279 399.589 248.699 400.104 249.249 400.484C249.799 400.854 250.479 401.039 251.289 401.039C252.129 401.039 252.794 400.849 253.284 400.469C253.784 400.079 254.114 399.564 254.274 398.924H255.669C255.459 399.934 254.974 400.724 254.214 401.294C253.464 401.864 252.489 402.149 251.289 402.149ZM261.275 402.149C260.355 402.149 259.61 401.964 259.04 401.594C258.47 401.214 258.05 400.719 257.78 400.109C257.52 399.489 257.39 398.819 257.39 398.099V391.469H258.65V398.114C258.65 399.134 258.895 399.874 259.385 400.334C259.875 400.794 260.515 401.024 261.305 401.024C262.095 401.024 262.73 400.794 263.21 400.334C263.69 399.874 263.93 399.134 263.93 398.114V391.469H265.19V398.099C265.19 398.869 265.075 399.514 264.845 400.034C264.615 400.554 264.305 400.969 263.915 401.279C263.535 401.589 263.115 401.814 262.655 401.954C262.195 402.084 261.735 402.149 261.275 402.149ZM267.324 401.969V391.469H268.584V400.964H273.474V401.969H267.324ZM274.545 401.969L278.415 391.469H279.75L283.605 401.969H282.27L281.31 399.269H276.84L275.865 401.969H274.545ZM277.215 398.249H280.935L279.075 393.059L277.215 398.249ZM286.439 401.969V392.504H283.304V391.469H290.834V392.504H287.699V401.969H286.439ZM292.373 401.969V391.469H293.633V401.969H292.373ZM300.629 402.149C299.829 402.149 299.109 402.014 298.469 401.744C297.829 401.464 297.284 401.079 296.834 400.589C296.384 400.099 296.039 399.524 295.799 398.864C295.569 398.204 295.454 397.489 295.454 396.719C295.454 395.949 295.569 395.234 295.799 394.574C296.039 393.914 296.384 393.339 296.834 392.849C297.284 392.359 297.824 391.979 298.454 391.709C299.094 391.429 299.819 391.289 300.629 391.289C301.429 391.289 302.144 391.424 302.774 391.694C303.414 391.954 303.959 392.329 304.409 392.819C304.859 393.299 305.204 393.874 305.444 394.544C305.684 395.204 305.804 395.929 305.804 396.719C305.804 397.509 305.684 398.239 305.444 398.909C305.204 399.569 304.859 400.144 304.409 400.634C303.959 401.114 303.414 401.489 302.774 401.759C302.144 402.019 301.429 402.149 300.629 402.149ZM300.629 401.039C301.449 401.039 302.149 400.854 302.729 400.484C303.309 400.114 303.749 399.604 304.049 398.954C304.359 398.304 304.514 397.559 304.514 396.719C304.514 395.859 304.359 395.109 304.049 394.469C303.749 393.819 303.309 393.314 302.729 392.954C302.149 392.594 301.449 392.414 300.629 392.414C299.819 392.414 299.124 392.599 298.544 392.969C297.964 393.339 297.519 393.849 297.209 394.499C296.899 395.139 296.744 395.879 296.744 396.719C296.744 397.549 296.899 398.294 297.209 398.954C297.519 399.604 297.964 400.114 298.544 400.484C299.124 400.854 299.819 401.039 300.629 401.039ZM307.622 401.969V391.469H308.882L314.477 399.884V391.469H315.737V401.969H314.477L308.882 393.554V401.969H307.622ZM325.278 402.149C324.568 402.149 323.923 402.019 323.343 401.759C322.773 401.499 322.318 401.124 321.978 400.634C321.648 400.134 321.483 399.529 321.483 398.819H322.803C322.803 399.519 323.033 400.074 323.493 400.484C323.953 400.884 324.548 401.084 325.278 401.084C325.918 401.084 326.448 400.929 326.868 400.619C327.298 400.309 327.513 399.869 327.513 399.299C327.513 398.909 327.443 398.599 327.303 398.369C327.173 398.129 326.973 397.934 326.703 397.784C326.433 397.624 326.093 397.474 325.683 397.334C325.273 397.194 324.788 397.029 324.228 396.839C323.728 396.659 323.298 396.454 322.938 396.224C322.588 395.994 322.318 395.714 322.128 395.384C321.938 395.044 321.843 394.639 321.843 394.169C321.833 393.549 321.973 393.029 322.263 392.609C322.563 392.179 322.963 391.854 323.463 391.634C323.973 391.404 324.533 391.289 325.143 391.289C325.763 391.289 326.318 391.404 326.808 391.634C327.308 391.854 327.708 392.184 328.008 392.624C328.308 393.054 328.463 393.579 328.473 394.199H327.153C327.153 393.669 326.963 393.234 326.583 392.894C326.203 392.544 325.708 392.369 325.098 392.369C324.558 392.349 324.098 392.484 323.718 392.774C323.338 393.064 323.148 393.489 323.148 394.049C323.148 394.419 323.223 394.714 323.373 394.934C323.533 395.144 323.803 395.329 324.183 395.489C324.563 395.649 325.088 395.844 325.758 396.074C326.238 396.234 326.668 396.404 327.048 396.584C327.428 396.754 327.748 396.959 328.008 397.199C328.268 397.429 328.468 397.709 328.608 398.039C328.748 398.359 328.818 398.754 328.818 399.224C328.818 399.854 328.653 400.389 328.323 400.829C328.003 401.259 327.573 401.589 327.033 401.819C326.503 402.039 325.918 402.149 325.278 402.149ZM332.761 401.969V397.979L329.341 391.469H330.766L333.391 396.779L336.016 391.469H337.426L334.021 397.979V401.969H332.761ZM341.582 402.149C340.872 402.149 340.227 402.019 339.647 401.759C339.077 401.499 338.622 401.124 338.282 400.634C337.952 400.134 337.787 399.529 337.787 398.819H339.107C339.107 399.519 339.337 400.074 339.797 400.484C340.257 400.884 340.852 401.084 341.582 401.084C342.222 401.084 342.752 400.929 343.172 400.619C343.602 400.309 343.817 399.869 343.817 399.299C343.817 398.909 343.747 398.599 343.607 398.369C343.477 398.129 343.277 397.934 343.007 397.784C342.737 397.624 342.397 397.474 341.987 397.334C341.577 397.194 341.092 397.029 340.532 396.839C340.032 396.659 339.602 396.454 339.242 396.224C338.892 395.994 338.622 395.714 338.432 395.384C338.242 395.044 338.147 394.639 338.147 394.169C338.137 393.549 338.277 393.029 338.567 392.609C338.867 392.179 339.267 391.854 339.767 391.634C340.277 391.404 340.837 391.289 341.447 391.289C342.067 391.289 342.622 391.404 343.112 391.634C343.612 391.854 344.012 392.184 344.312 392.624C344.612 393.054 344.767 393.579 344.777 394.199H343.457C343.457 393.669 343.267 393.234 342.887 392.894C342.507 392.544 342.012 392.369 341.402 392.369C340.862 392.349 340.402 392.484 340.022 392.774C339.642 393.064 339.452 393.489 339.452 394.049C339.452 394.419 339.527 394.714 339.677 394.934C339.837 395.144 340.107 395.329 340.487 395.489C340.867 395.649 341.392 395.844 342.062 396.074C342.542 396.234 342.972 396.404 343.352 396.584C343.732 396.754 344.052 396.959 344.312 397.199C344.572 397.429 344.772 397.709 344.912 398.039C345.052 398.359 345.122 398.754 345.122 399.224C345.122 399.854 344.957 400.389 344.627 400.829C344.307 401.259 343.877 401.589 343.337 401.819C342.807 402.039 342.222 402.149 341.582 402.149ZM349.12 401.969V392.504H345.985V391.469H353.515V392.504H350.38V401.969H349.12ZM355.053 401.969V391.469H361.548V392.504H356.313V395.909H360.888V396.929H356.313V400.934H361.548V401.969H355.053ZM363.52 401.969V391.469H364.99L368.62 398.759L372.22 391.469H373.705V401.969H372.445V393.749L369.085 400.469H368.14L364.78 393.764V401.969H363.52Z" fill="#33658A"/>
<defs>
<clipPath id="clip0_175_621">
<rect width="238.46" height="258.95" fill="white" transform="translate(71.1431)"/>
</clipPath>
</defs>
</svg>
