<svg width="391" height="115" viewBox="0 0 391 115" fill="none" xmlns="http://www.w3.org/2000/svg">
<path d="M139.813 105.422V97.7219H140.737V104.685H144.323V105.422H139.813ZM145.592 105.422V97.7219H146.516V105.422H145.592ZM148.148 105.422V97.7219H150.799C151.525 97.7219 152.097 97.8979 152.515 98.2499C152.941 98.5945 153.153 99.0455 153.153 99.6029C153.153 100.028 153.036 100.388 152.801 100.681C152.574 100.974 152.295 101.172 151.965 101.275C152.303 101.378 152.585 101.524 152.812 101.715C153.04 101.906 153.212 102.129 153.329 102.386C153.447 102.635 153.505 102.918 153.505 103.233C153.505 103.658 153.417 104.036 153.241 104.366C153.065 104.696 152.794 104.956 152.427 105.147C152.068 105.33 151.61 105.422 151.052 105.422H148.148ZM149.072 104.652H150.766C151.331 104.652 151.771 104.535 152.086 104.3C152.409 104.065 152.57 103.691 152.57 103.178C152.57 102.657 152.398 102.28 152.053 102.045C151.709 101.81 151.272 101.693 150.744 101.693H149.072V104.652ZM149.072 100.956H150.733C151.21 100.956 151.577 100.846 151.833 100.626C152.09 100.399 152.218 100.098 152.218 99.7239C152.218 99.3352 152.09 99.0345 151.833 98.8219C151.577 98.6019 151.199 98.4919 150.7 98.4919H149.072V100.956ZM154.766 105.422V97.7219H157.043C157.585 97.7219 158.047 97.8025 158.429 97.9639C158.81 98.1179 159.103 98.3525 159.309 98.6679C159.514 98.9832 159.617 99.3829 159.617 99.8669C159.617 100.468 159.459 100.923 159.144 101.231C158.836 101.539 158.414 101.741 157.879 101.836L160.09 105.422H158.946L156.966 102.012H155.69V105.422H154.766ZM155.69 101.231H157.021C157.431 101.231 157.758 101.183 158 101.088C158.242 100.985 158.414 100.831 158.517 100.626C158.619 100.421 158.671 100.168 158.671 99.8669C158.671 99.5589 158.619 99.3022 158.517 99.0969C158.414 98.8915 158.242 98.7412 158 98.6459C157.758 98.5432 157.431 98.4919 157.021 98.4919H155.69V101.231ZM160.802 105.422L163.64 97.7219H164.619L167.446 105.422H166.467L165.763 103.442H162.485L161.77 105.422H160.802ZM162.76 102.694H165.488L164.124 98.8879L162.76 102.694ZM168.591 105.422V97.7219H170.868C171.411 97.7219 171.873 97.8025 172.254 97.9639C172.635 98.1179 172.929 98.3525 173.134 98.6679C173.339 98.9832 173.442 99.3829 173.442 99.8669C173.442 100.468 173.284 100.923 172.969 101.231C172.661 101.539 172.239 101.741 171.704 101.836L173.915 105.422H172.771L170.791 102.012H169.515V105.422H168.591ZM169.515 101.231H170.846C171.257 101.231 171.583 101.183 171.825 101.088C172.067 100.985 172.239 100.831 172.342 100.626C172.445 100.421 172.496 100.168 172.496 99.8669C172.496 99.5589 172.445 99.3022 172.342 99.0969C172.239 98.8915 172.067 98.7412 171.825 98.6459C171.583 98.5432 171.257 98.4919 170.846 98.4919H169.515V101.231ZM176.692 105.422V102.496L174.184 97.7219H175.229L177.154 101.616L179.079 97.7219H180.113L177.616 102.496V105.422H176.692ZM184.06 105.422V97.7219H186.337C186.879 97.7219 187.341 97.8025 187.723 97.9639C188.104 98.1179 188.397 98.3525 188.603 98.6679C188.808 98.9832 188.911 99.3829 188.911 99.8669C188.911 100.468 188.753 100.923 188.438 101.231C188.13 101.539 187.708 101.741 187.173 101.836L189.384 105.422H188.24L186.26 102.012H184.984V105.422H184.06ZM184.984 101.231H186.315C186.725 101.231 187.052 101.183 187.294 101.088C187.536 100.985 187.708 100.831 187.811 100.626C187.913 100.421 187.965 100.168 187.965 99.8669C187.965 99.5589 187.913 99.3022 187.811 99.0969C187.708 98.8915 187.536 98.7412 187.294 98.6459C187.052 98.5432 186.725 98.4919 186.315 98.4919H184.984V101.231ZM190.58 105.422V97.7219H195.343V98.4809H191.504V100.978H194.859V101.726H191.504V104.663H195.343V105.422H190.58ZM199.242 105.554C198.721 105.554 198.248 105.459 197.823 105.268C197.405 105.077 197.071 104.802 196.822 104.443C196.58 104.076 196.459 103.633 196.459 103.112H197.427C197.427 103.625 197.596 104.032 197.933 104.333C198.27 104.626 198.707 104.773 199.242 104.773C199.711 104.773 200.1 104.659 200.408 104.432C200.723 104.205 200.881 103.882 200.881 103.464C200.881 103.178 200.83 102.951 200.727 102.782C200.632 102.606 200.485 102.463 200.287 102.353C200.089 102.236 199.84 102.126 199.539 102.023C199.238 101.92 198.883 101.799 198.472 101.66C198.105 101.528 197.79 101.378 197.526 101.209C197.269 101.04 197.071 100.835 196.932 100.593C196.793 100.344 196.723 100.047 196.723 99.7019C196.716 99.2472 196.818 98.8659 197.031 98.5579C197.251 98.2425 197.544 98.0042 197.911 97.8429C198.285 97.6742 198.696 97.5899 199.143 97.5899C199.598 97.5899 200.005 97.6742 200.364 97.8429C200.731 98.0042 201.024 98.2462 201.244 98.5689C201.464 98.8842 201.578 99.2692 201.585 99.7239H200.617C200.617 99.3352 200.478 99.0162 200.199 98.7669C199.92 98.5102 199.557 98.3819 199.11 98.3819C198.714 98.3672 198.377 98.4662 198.098 98.6789C197.819 98.8915 197.68 99.2032 197.68 99.6139C197.68 99.8852 197.735 100.102 197.845 100.263C197.962 100.417 198.16 100.553 198.439 100.67C198.718 100.787 199.103 100.93 199.594 101.099C199.946 101.216 200.261 101.341 200.54 101.473C200.819 101.598 201.053 101.748 201.244 101.924C201.435 102.093 201.581 102.298 201.684 102.54C201.787 102.775 201.838 103.064 201.838 103.409C201.838 103.871 201.717 104.263 201.475 104.586C201.24 104.901 200.925 105.143 200.529 105.312C200.14 105.473 199.711 105.554 199.242 105.554ZM206.646 105.554C206.06 105.554 205.532 105.455 205.062 105.257C204.593 105.052 204.193 104.769 203.863 104.41C203.533 104.051 203.28 103.629 203.104 103.145C202.936 102.661 202.851 102.137 202.851 101.572C202.851 101.007 202.936 100.483 203.104 99.9989C203.28 99.5149 203.533 99.0932 203.863 98.7339C204.193 98.3745 204.589 98.0959 205.051 97.8979C205.521 97.6925 206.052 97.5899 206.646 97.5899C207.233 97.5899 207.757 97.6889 208.219 97.8869C208.689 98.0775 209.088 98.3525 209.418 98.7119C209.748 99.0639 210.001 99.4855 210.177 99.9769C210.353 100.461 210.441 100.993 210.441 101.572C210.441 102.151 210.353 102.687 210.177 103.178C210.001 103.662 209.748 104.084 209.418 104.443C209.088 104.795 208.689 105.07 208.219 105.268C207.757 105.459 207.233 105.554 206.646 105.554ZM206.646 104.74C207.248 104.74 207.761 104.604 208.186 104.333C208.612 104.062 208.934 103.688 209.154 103.211C209.382 102.734 209.495 102.188 209.495 101.572C209.495 100.941 209.382 100.391 209.154 99.9219C208.934 99.4452 208.612 99.0749 208.186 98.8109C207.761 98.5469 207.248 98.4149 206.646 98.4149C206.052 98.4149 205.543 98.5505 205.117 98.8219C204.692 99.0932 204.366 99.4672 204.138 99.9439C203.911 100.413 203.797 100.956 203.797 101.572C203.797 102.181 203.911 102.727 204.138 103.211C204.366 103.688 204.692 104.062 205.117 104.333C205.543 104.604 206.052 104.74 206.646 104.74ZM214.557 105.554C213.883 105.554 213.336 105.418 212.918 105.147C212.5 104.868 212.192 104.505 211.994 104.058C211.804 103.603 211.708 103.112 211.708 102.584V97.7219H212.632V102.595C212.632 103.343 212.812 103.886 213.171 104.223C213.531 104.56 214 104.729 214.579 104.729C215.159 104.729 215.624 104.56 215.976 104.223C216.328 103.886 216.504 103.343 216.504 102.595V97.7219H217.428V102.584C217.428 103.149 217.344 103.622 217.175 104.003C217.007 104.384 216.779 104.689 216.493 104.916C216.215 105.143 215.907 105.308 215.569 105.411C215.232 105.506 214.895 105.554 214.557 105.554ZM218.993 105.422V97.7219H221.27C221.813 97.7219 222.275 97.8025 222.656 97.9639C223.038 98.1179 223.331 98.3525 223.536 98.6679C223.742 98.9832 223.844 99.3829 223.844 99.8669C223.844 100.468 223.687 100.923 223.371 101.231C223.063 101.539 222.642 101.741 222.106 101.836L224.317 105.422H223.173L221.193 102.012H219.917V105.422H218.993ZM219.917 101.231H221.248C221.659 101.231 221.985 101.183 222.227 101.088C222.469 100.985 222.642 100.831 222.744 100.626C222.847 100.421 222.898 100.168 222.898 99.8669C222.898 99.5589 222.847 99.3022 222.744 99.0969C222.642 98.8915 222.469 98.7412 222.227 98.6459C221.985 98.5432 221.659 98.4919 221.248 98.4919H219.917V101.231ZM228.676 105.554C227.899 105.554 227.235 105.382 226.685 105.037C226.135 104.685 225.717 104.208 225.431 103.607C225.145 103.006 225.002 102.327 225.002 101.572C225.002 100.824 225.141 100.149 225.42 99.5479C225.706 98.9465 226.124 98.4699 226.674 98.1179C227.224 97.7659 227.891 97.5899 228.676 97.5899C229.556 97.5899 230.271 97.8025 230.821 98.2279C231.378 98.6459 231.734 99.2325 231.888 99.9879H230.865C230.748 99.5112 230.506 99.1299 230.139 98.8439C229.78 98.5505 229.292 98.4039 228.676 98.4039C228.067 98.4039 227.561 98.5469 227.158 98.8329C226.755 99.1115 226.45 99.4892 226.245 99.9659C226.047 100.443 225.948 100.978 225.948 101.572C225.948 102.181 226.051 102.723 226.256 103.2C226.469 103.677 226.777 104.054 227.18 104.333C227.583 104.604 228.082 104.74 228.676 104.74C229.292 104.74 229.78 104.601 230.139 104.322C230.506 104.036 230.748 103.658 230.865 103.189H231.888C231.734 103.93 231.378 104.509 230.821 104.927C230.271 105.345 229.556 105.554 228.676 105.554ZM233.216 105.422V97.7219H237.979V98.4809H234.14V100.978H237.495V101.726H234.14V104.663H237.979V105.422H233.216ZM241.878 105.554C241.357 105.554 240.884 105.459 240.459 105.268C240.041 105.077 239.707 104.802 239.458 104.443C239.216 104.076 239.095 103.633 239.095 103.112H240.063C240.063 103.625 240.232 104.032 240.569 104.333C240.906 104.626 241.343 104.773 241.878 104.773C242.347 104.773 242.736 104.659 243.044 104.432C243.359 104.205 243.517 103.882 243.517 103.464C243.517 103.178 243.466 102.951 243.363 102.782C243.268 102.606 243.121 102.463 242.923 102.353C242.725 102.236 242.476 102.126 242.175 102.023C241.874 101.92 241.519 101.799 241.108 101.66C240.741 101.528 240.426 101.378 240.162 101.209C239.905 101.04 239.707 100.835 239.568 100.593C239.429 100.344 239.359 100.047 239.359 99.7019C239.352 99.2472 239.454 98.8659 239.667 98.5579C239.887 98.2425 240.18 98.0042 240.547 97.8429C240.921 97.6742 241.332 97.5899 241.779 97.5899C242.234 97.5899 242.641 97.6742 243 97.8429C243.367 98.0042 243.66 98.2462 243.88 98.5689C244.1 98.8842 244.214 99.2692 244.221 99.7239H243.253C243.253 99.3352 243.114 99.0162 242.835 98.7669C242.556 98.5102 242.193 98.3819 241.746 98.3819C241.35 98.3672 241.013 98.4662 240.734 98.6789C240.455 98.8915 240.316 99.2032 240.316 99.6139C240.316 99.8852 240.371 100.102 240.481 100.263C240.598 100.417 240.796 100.553 241.075 100.67C241.354 100.787 241.739 100.93 242.23 101.099C242.582 101.216 242.897 101.341 243.176 101.473C243.455 101.598 243.689 101.748 243.88 101.924C244.071 102.093 244.217 102.298 244.32 102.54C244.423 102.775 244.474 103.064 244.474 103.409C244.474 103.871 244.353 104.263 244.111 104.586C243.876 104.901 243.561 105.143 243.165 105.312C242.776 105.473 242.347 105.554 241.878 105.554ZM248.211 105.422L251.049 97.7219H252.028L254.855 105.422H253.876L253.172 103.442H249.894L249.179 105.422H248.211ZM250.169 102.694H252.897L251.533 98.8879L250.169 102.694ZM256 105.422V97.7219H256.924L261.027 103.893V97.7219H261.951V105.422H261.027L256.924 99.2509V105.422H256ZM263.584 105.422V97.7219H265.949C266.858 97.7219 267.603 97.8795 268.182 98.1949C268.769 98.5029 269.201 98.9465 269.48 99.5259C269.766 100.098 269.909 100.787 269.909 101.594C269.909 102.386 269.766 103.068 269.48 103.64C269.201 104.212 268.769 104.652 268.182 104.96C267.603 105.268 266.858 105.422 265.949 105.422H263.584ZM264.508 104.652H265.927C266.66 104.652 267.247 104.535 267.687 104.3C268.134 104.058 268.457 103.71 268.655 103.255C268.853 102.793 268.952 102.239 268.952 101.594C268.952 100.545 268.71 99.7679 268.226 99.2619C267.742 98.7485 266.976 98.4919 265.927 98.4919H264.508V104.652ZM277.531 105.554C276.754 105.554 276.09 105.382 275.54 105.037C274.99 104.685 274.572 104.208 274.286 103.607C274 103.006 273.857 102.327 273.857 101.572C273.857 100.824 273.997 100.149 274.275 99.5479C274.561 98.9465 274.979 98.4699 275.529 98.1179C276.079 97.7659 276.747 97.5899 277.531 97.5899C278.411 97.5899 279.126 97.8025 279.676 98.2279C280.234 98.6459 280.589 99.2325 280.743 99.9879H279.72C279.603 99.5112 279.361 99.1299 278.994 98.8439C278.635 98.5505 278.147 98.4039 277.531 98.4039C276.923 98.4039 276.417 98.5469 276.013 98.8329C275.61 99.1115 275.306 99.4892 275.1 99.9659C274.902 100.443 274.803 100.978 274.803 101.572C274.803 102.181 274.906 102.723 275.111 103.2C275.324 103.677 275.632 104.054 276.035 104.333C276.439 104.604 276.937 104.74 277.531 104.74C278.147 104.74 278.635 104.601 278.994 104.322C279.361 104.036 279.603 103.658 279.72 103.189H280.743C280.589 103.93 280.234 104.509 279.676 104.927C279.126 105.345 278.411 105.554 277.531 105.554ZM282.071 105.422V97.7219H282.995V105.422H282.071ZM284.628 105.422V97.7219H286.905C287.448 97.7219 287.91 97.8025 288.291 97.9639C288.672 98.1179 288.966 98.3525 289.171 98.6679C289.376 98.9832 289.479 99.3829 289.479 99.8669C289.479 100.468 289.321 100.923 289.006 101.231C288.698 101.539 288.276 101.741 287.741 101.836L289.952 105.422H288.808L286.828 102.012H285.552V105.422H284.628ZM285.552 101.231H286.883C287.294 101.231 287.62 101.183 287.862 101.088C288.104 100.985 288.276 100.831 288.379 100.626C288.482 100.421 288.533 100.168 288.533 99.8669C288.533 99.5589 288.482 99.3022 288.379 99.0969C288.276 98.8915 288.104 98.7412 287.862 98.6459C287.62 98.5432 287.294 98.4919 286.883 98.4919H285.552V101.231ZM294.311 105.554C293.533 105.554 292.87 105.382 292.32 105.037C291.77 104.685 291.352 104.208 291.066 103.607C290.78 103.006 290.637 102.327 290.637 101.572C290.637 100.824 290.776 100.149 291.055 99.5479C291.341 98.9465 291.759 98.4699 292.309 98.1179C292.859 97.7659 293.526 97.5899 294.311 97.5899C295.191 97.5899 295.906 97.8025 296.456 98.2279C297.013 98.6459 297.369 99.2325 297.523 99.9879H296.5C296.382 99.5112 296.14 99.1299 295.774 98.8439C295.414 98.5505 294.927 98.4039 294.311 98.4039C293.702 98.4039 293.196 98.5469 292.793 98.8329C292.389 99.1115 292.085 99.4892 291.88 99.9659C291.682 100.443 291.583 100.978 291.583 101.572C291.583 102.181 291.685 102.723 291.891 103.2C292.103 103.677 292.411 104.054 292.815 104.333C293.218 104.604 293.717 104.74 294.311 104.74C294.927 104.74 295.414 104.601 295.774 104.322C296.14 104.036 296.382 103.658 296.5 103.189H297.523C297.369 103.93 297.013 104.509 296.456 104.927C295.906 105.345 295.191 105.554 294.311 105.554ZM301.634 105.554C300.959 105.554 300.413 105.418 299.995 105.147C299.577 104.868 299.269 104.505 299.071 104.058C298.88 103.603 298.785 103.112 298.785 102.584V97.7219H299.709V102.595C299.709 103.343 299.888 103.886 300.248 104.223C300.607 104.56 301.076 104.729 301.656 104.729C302.235 104.729 302.701 104.56 303.053 104.223C303.405 103.886 303.581 103.343 303.581 102.595V97.7219H304.505V102.584C304.505 103.149 304.42 103.622 304.252 104.003C304.083 104.384 303.856 104.689 303.57 104.916C303.291 105.143 302.983 105.308 302.646 105.411C302.308 105.506 301.971 105.554 301.634 105.554ZM306.069 105.422V97.7219H306.993V104.685H310.579V105.422H306.069ZM311.365 105.422L314.203 97.7219H315.182L318.009 105.422H317.03L316.326 103.442H313.048L312.333 105.422H311.365ZM313.323 102.694H316.051L314.687 98.8879L313.323 102.694ZM320.087 105.422V98.4809H317.788V97.7219H323.31V98.4809H321.011V105.422H320.087ZM324.439 105.422V97.7219H325.363V105.422H324.439ZM330.493 105.554C329.906 105.554 329.378 105.455 328.909 105.257C328.44 105.052 328.04 104.769 327.71 104.41C327.38 104.051 327.127 103.629 326.951 103.145C326.782 102.661 326.698 102.137 326.698 101.572C326.698 101.007 326.782 100.483 326.951 99.9989C327.127 99.5149 327.38 99.0932 327.71 98.7339C328.04 98.3745 328.436 98.0959 328.898 97.8979C329.367 97.6925 329.899 97.5899 330.493 97.5899C331.08 97.5899 331.604 97.6889 332.066 97.8869C332.535 98.0775 332.935 98.3525 333.265 98.7119C333.595 99.0639 333.848 99.4855 334.024 99.9769C334.2 100.461 334.288 100.993 334.288 101.572C334.288 102.151 334.2 102.687 334.024 103.178C333.848 103.662 333.595 104.084 333.265 104.443C332.935 104.795 332.535 105.07 332.066 105.268C331.604 105.459 331.08 105.554 330.493 105.554ZM330.493 104.74C331.094 104.74 331.608 104.604 332.033 104.333C332.458 104.062 332.781 103.688 333.001 103.211C333.228 102.734 333.342 102.188 333.342 101.572C333.342 100.941 333.228 100.391 333.001 99.9219C332.781 99.4452 332.458 99.0749 332.033 98.8109C331.608 98.5469 331.094 98.4149 330.493 98.4149C329.899 98.4149 329.389 98.5505 328.964 98.8219C328.539 99.0932 328.212 99.4672 327.985 99.9439C327.758 100.413 327.644 100.956 327.644 101.572C327.644 102.181 327.758 102.727 327.985 103.211C328.212 103.688 328.539 104.062 328.964 104.333C329.389 104.604 329.899 104.74 330.493 104.74ZM335.621 105.422V97.7219H336.545L340.648 103.893V97.7219H341.572V105.422H340.648L336.545 99.2509V105.422H335.621ZM348.569 105.554C348.049 105.554 347.576 105.459 347.15 105.268C346.732 105.077 346.399 104.802 346.149 104.443C345.907 104.076 345.786 103.633 345.786 103.112H346.754C346.754 103.625 346.923 104.032 347.26 104.333C347.598 104.626 348.034 104.773 348.569 104.773C349.039 104.773 349.427 104.659 349.735 104.432C350.051 104.205 350.208 103.882 350.208 103.464C350.208 103.178 350.157 102.951 350.054 102.782C349.959 102.606 349.812 102.463 349.614 102.353C349.416 102.236 349.167 102.126 348.866 102.023C348.566 101.92 348.21 101.799 347.799 101.66C347.433 101.528 347.117 101.378 346.853 101.209C346.597 101.04 346.399 100.835 346.259 100.593C346.12 100.344 346.05 100.047 346.05 99.7019C346.043 99.2472 346.146 98.8659 346.358 98.5579C346.578 98.2425 346.872 98.0042 347.238 97.8429C347.612 97.6742 348.023 97.5899 348.47 97.5899C348.925 97.5899 349.332 97.6742 349.691 97.8429C350.058 98.0042 350.351 98.2462 350.571 98.5689C350.791 98.8842 350.905 99.2692 350.912 99.7239H349.944C349.944 99.3352 349.805 99.0162 349.526 98.7669C349.248 98.5102 348.885 98.3819 348.437 98.3819C348.041 98.3672 347.704 98.4662 347.425 98.6789C347.147 98.8915 347.007 99.2032 347.007 99.6139C347.007 99.8852 347.062 100.102 347.172 100.263C347.29 100.417 347.488 100.553 347.766 100.67C348.045 100.787 348.43 100.93 348.921 101.099C349.273 101.216 349.589 101.341 349.867 101.473C350.146 101.598 350.381 101.748 350.571 101.924C350.762 102.093 350.909 102.298 351.011 102.54C351.114 102.775 351.165 103.064 351.165 103.409C351.165 103.871 351.044 104.263 350.802 104.586C350.568 104.901 350.252 105.143 349.856 105.312C349.468 105.473 349.039 105.554 348.569 105.554ZM354.057 105.422V102.496L351.549 97.7219H352.594L354.519 101.616L356.444 97.7219H357.478L354.981 102.496V105.422H354.057ZM360.525 105.554C360.005 105.554 359.532 105.459 359.106 105.268C358.688 105.077 358.355 104.802 358.105 104.443C357.863 104.076 357.742 103.633 357.742 103.112H358.71C358.71 103.625 358.879 104.032 359.216 104.333C359.554 104.626 359.99 104.773 360.525 104.773C360.995 104.773 361.383 104.659 361.691 104.432C362.007 104.205 362.164 103.882 362.164 103.464C362.164 103.178 362.113 102.951 362.01 102.782C361.915 102.606 361.768 102.463 361.57 102.353C361.372 102.236 361.123 102.126 360.822 102.023C360.522 101.92 360.166 101.799 359.755 101.66C359.389 101.528 359.073 101.378 358.809 101.209C358.553 101.04 358.355 100.835 358.215 100.593C358.076 100.344 358.006 100.047 358.006 99.7019C357.999 99.2472 358.102 98.8659 358.314 98.5579C358.534 98.2425 358.828 98.0042 359.194 97.8429C359.568 97.6742 359.979 97.5899 360.426 97.5899C360.881 97.5899 361.288 97.6742 361.647 97.8429C362.014 98.0042 362.307 98.2462 362.527 98.5689C362.747 98.8842 362.861 99.2692 362.868 99.7239H361.9C361.9 99.3352 361.761 99.0162 361.482 98.7669C361.204 98.5102 360.841 98.3819 360.393 98.3819C359.997 98.3672 359.66 98.4662 359.381 98.6789C359.103 98.8915 358.963 99.2032 358.963 99.6139C358.963 99.8852 359.018 100.102 359.128 100.263C359.246 100.417 359.444 100.553 359.722 100.67C360.001 100.787 360.386 100.93 360.877 101.099C361.229 101.216 361.545 101.341 361.823 101.473C362.102 101.598 362.337 101.748 362.527 101.924C362.718 102.093 362.865 102.298 362.967 102.54C363.07 102.775 363.121 103.064 363.121 103.409C363.121 103.871 363 104.263 362.758 104.586C362.524 104.901 362.208 105.143 361.812 105.312C361.424 105.473 360.995 105.554 360.525 105.554ZM366.053 105.422V98.4809H363.754V97.7219H369.276V98.4809H366.977V105.422H366.053ZM370.404 105.422V97.7219H375.167V98.4809H371.328V100.978H374.683V101.726H371.328V104.663H375.167V105.422H370.404ZM376.613 105.422V97.7219H377.691L380.353 103.068L382.993 97.7219H384.082V105.422H383.158V99.3939L380.694 104.322H380.001L377.537 99.4049V105.422H376.613Z" fill="black"/>
<path d="M154 21.1373V73.0373H174.9L174.5 66.0373C174.433 65.0373 174.9 64.5373 175.9 64.5373H181.5C182.5 64.5373 183 65.0373 183 66.0373V85.7373C183 86.7373 182.5 87.2373 181.5 87.2373H175.9C174.9 87.2373 174.433 86.7373 174.5 85.7373L174.8 80.9373H137.5C136.5 80.9373 136 80.4373 136 79.4373V74.5373C136 73.5373 136.5 73.0373 137.5 73.0373H142.8V21.1373H137.5C136.5 21.1373 136 20.6373 136 19.6373V14.5373C136 13.5373 136.5 13.0373 137.5 13.0373H161.3C162.3 13.0373 162.8 13.5373 162.8 14.5373V19.6373C162.8 20.6373 162.3 21.1373 161.3 21.1373H154ZM205.159 73.0373H211.459C212.459 73.0373 212.959 73.5373 212.959 74.5373V79.4373C212.959 80.4373 212.459 80.9373 211.459 80.9373H187.659C186.659 80.9373 186.159 80.4373 186.159 79.4373V74.5373C186.159 73.5373 186.659 73.0373 187.659 73.0373C187.659 73.0373 189.759 73.0373 193.959 73.0373V39.6373H188.559C187.559 39.6373 187.059 39.1373 187.059 38.1373V32.9373C187.059 31.9373 187.559 31.4373 188.559 31.4373H203.659C204.659 31.4373 205.159 31.9373 205.159 32.9373V73.0373ZM193.059 22.5373C191.792 21.2039 191.159 19.5039 191.159 17.4373C191.159 15.3706 191.792 13.6706 193.059 12.3373C194.392 10.9373 196.125 10.2373 198.259 10.2373C200.459 10.2373 202.192 10.9373 203.459 12.3373C204.792 13.6706 205.459 15.3706 205.459 17.4373C205.459 19.5039 204.792 21.2039 203.459 22.5373C202.125 23.8706 200.359 24.5373 198.159 24.5373C196.025 24.5373 194.325 23.8706 193.059 22.5373ZM217.973 79.4373V74.5373C217.973 73.5373 218.473 73.0373 219.473 73.0373H224.673V21.0373H219.473C218.473 21.0373 217.973 20.5373 217.973 19.5373V14.5373C217.973 13.5373 218.473 13.0373 219.473 13.0373C228.006 12.6373 235.106 12.4372 240.773 12.4372C258.106 12.4372 266.773 18.6373 266.773 31.0373C266.773 35.3706 265.673 39.2039 263.473 42.5373C261.273 45.8039 258.339 48.3039 254.673 50.0373L266.373 73.0373H272.573C273.573 73.0373 274.073 73.5373 274.073 74.5373V79.4373C274.073 80.4373 273.573 80.9373 272.573 80.9373H259.373C258.373 80.9373 257.639 80.5039 257.173 79.6373L243.573 52.7373H241.573C239.439 52.7373 237.539 52.6373 235.873 52.4373V73.0373H242.173C243.173 73.0373 243.673 73.5373 243.673 74.5373V79.4373C243.673 80.4373 243.173 80.9373 242.173 80.9373H219.473C218.473 80.9373 217.973 80.4373 217.973 79.4373ZM235.873 20.7373V44.8373C236.406 44.9039 237.173 44.9373 238.173 44.9373C243.573 44.9373 247.773 43.8706 250.773 41.7373C253.773 39.6039 255.273 36.4039 255.273 32.1373C255.273 24.5373 250.006 20.7373 239.473 20.7373H235.873Z" fill="#33658A"/>
<path d="M279.913 47.3373C279.913 40.9373 280.847 35.3039 282.713 30.4373C284.647 25.5706 287.18 21.8039 290.313 19.1373C296.447 13.9373 303.38 11.3373 311.113 11.3373C318.913 11.3373 325.913 13.0373 332.113 16.4373C332.98 16.9039 333.413 17.5706 333.413 18.4373V31.3373C333.413 32.3373 332.913 32.8373 331.913 32.8373H326.313C325.313 32.8373 324.847 32.3373 324.913 31.3373L325.213 24.3373C321.08 21.5373 316.38 20.1373 311.113 20.1373C298.313 20.1373 291.913 28.6706 291.913 45.7373C291.913 51.0706 292.547 55.7373 293.813 59.7373C295.08 63.6706 297.313 66.9373 300.513 69.5373C303.713 72.1373 307.98 73.4373 313.313 73.4373C318.647 73.4373 322.647 72.3706 325.313 70.2373L324.913 63.2373C324.847 62.2373 325.313 61.7373 326.313 61.7373H332.013C333.013 61.7373 333.513 62.2373 333.513 63.2373V75.9373C333.513 76.8706 333.18 77.5039 332.513 77.8373C326.647 80.7039 319.947 82.1373 312.413 82.1373C301.48 82.1373 293.313 79.0373 287.913 72.8373C282.58 66.6373 279.913 58.1373 279.913 47.3373ZM366.823 11.3373C371.757 11.3373 376.69 12.0706 381.623 13.5373C382.557 13.8039 383.023 14.4039 383.023 15.3373V29.1373C383.023 30.1373 382.523 30.6373 381.523 30.6373H375.923C374.923 30.6373 374.457 30.1373 374.523 29.1373L374.823 22.4373C372.157 20.8373 369.19 20.0373 365.923 20.0373C362.657 20.0373 360.023 20.8373 358.023 22.4373C356.09 23.9706 355.123 26.1373 355.123 28.9373C355.123 31.7373 356.023 34.0373 357.823 35.8373C359.623 37.5706 362.19 39.0706 365.523 40.3373C368.857 41.6039 371.09 42.4706 372.223 42.9373C373.357 43.4039 374.99 44.2706 377.123 45.5373C379.323 46.8039 380.923 48.0706 381.923 49.3373C382.99 50.5373 383.957 52.1706 384.823 54.2373C385.757 56.3039 386.223 58.6039 386.223 61.1373C386.223 67.7373 384.123 72.9039 379.923 76.6373C375.79 80.3039 369.89 82.1373 362.223 82.1373C356.557 82.1373 350.957 81.2706 345.423 79.5373C344.49 79.2706 344.023 78.6706 344.023 77.7373V61.8373C344.023 60.8373 344.523 60.3373 345.523 60.3373H351.123C352.123 60.3373 352.59 60.8373 352.523 61.8373L352.123 70.1373C352.99 70.9373 354.423 71.7039 356.423 72.4373C358.49 73.1039 360.59 73.4373 362.723 73.4373C370.99 73.4373 375.123 70.0706 375.123 63.3373C375.123 60.0706 374.023 57.5039 371.823 55.6373C369.623 53.7039 366.757 52.1706 363.223 51.0373C359.757 49.8373 357.123 48.8039 355.323 47.9373C353.523 47.0039 351.69 45.8039 349.823 44.3373C346.09 41.5373 344.223 37.2373 344.223 31.4373C344.223 25.6373 346.223 20.8373 350.223 17.0373C354.223 13.2373 359.757 11.3373 366.823 11.3373Z" fill="#F6AE2D"/>
<g clip-path="url(#clip0_177_665)">
<path d="M20.3906 12.95C20.666 12.9458 20.9414 12.9416 21.2252 12.9373C23.8152 13.1769 25.8549 14.1058 28.015 15.2205C28.297 15.3632 28.5789 15.5058 28.8693 15.6528C29.4705 15.9569 30.071 16.262 30.6707 16.568C31.8938 17.1902 33.1233 17.8042 34.353 18.4181C35.2948 18.8884 36.2358 19.3596 37.1765 19.8311C37.4916 19.989 37.8066 20.1469 38.1311 20.3096C38.4508 20.4698 38.7704 20.6301 39.0998 20.7952C40.4225 21.4582 41.7454 22.1211 43.0684 22.7839C43.3632 22.9317 43.6581 23.0796 43.9619 23.232C46.8878 24.6978 49.8283 26.1441 52.7724 27.5863C53.8146 28.0977 53.8146 28.0977 54.8569 28.609C55.3837 28.8665 55.3837 28.8665 55.9211 29.1292C61.1708 31.7082 61.1708 31.7082 61.9339 33.0718C62.069 33.9245 62.0564 34.7705 62.0467 35.6289C62.0475 35.8889 62.0483 36.1488 62.0491 36.4166C62.0507 37.2887 62.0455 38.1607 62.0404 39.0329C62.0401 39.6576 62.0403 40.2822 62.0408 40.9069C62.041 42.2525 62.0384 43.5979 62.0331 44.9435C62.0255 46.8888 62.023 48.8342 62.0218 50.7796C62.0198 53.9359 62.0135 57.0922 62.0047 60.2485C61.9961 63.3145 61.9894 66.3804 61.9854 69.4463C61.9851 69.7298 61.9851 69.7298 61.9847 70.019C61.9834 70.9673 61.9823 71.9155 61.9811 72.8637C61.9714 80.729 61.9548 88.5943 61.9339 96.4597C60.6595 96.244 59.7921 95.7416 58.7473 95.1443C51.6641 91.2564 43.7813 88.7609 35.5026 87.0799C35.2972 87.0378 35.0917 86.9957 34.88 86.9523C31.0071 86.1678 27.1498 85.6421 23.1471 85.6862C23.1381 86.4744 23.1325 87.2626 23.1276 88.0508C23.125 88.2757 23.1223 88.5006 23.1196 88.7324C23.1186 88.9464 23.1176 89.1603 23.1166 89.3808C23.115 89.5789 23.1133 89.777 23.1116 89.9812C23.083 90.4506 23.083 90.4506 23.4599 90.6971C24.1252 90.7625 24.7907 90.8264 25.4571 90.8842C37.863 92.0043 50.0708 95.726 59.1187 102.723C59.3542 102.899 59.5897 103.075 59.8323 103.256C61.4022 104.455 62.6369 105.774 63.8107 107.233C64.0737 107.557 64.0737 107.557 64.3422 107.888C64.749 108.486 64.749 108.486 64.749 109.237C63.3882 108.915 62.3175 108.496 61.1323 107.875C48.6341 101.559 33.8168 97.7575 19.0612 97.1017C17.1694 96.9895 16.1653 96.4362 14.9167 95.3009C14.1471 94.4333 14.0366 93.9929 14.0341 92.9389C14.0327 92.6693 14.0313 92.3997 14.0298 92.122C14.0299 91.8234 14.03 91.5248 14.03 91.2172C14.0289 90.9019 14.0277 90.5865 14.0265 90.2617C14.0234 89.3835 14.0222 88.5053 14.0214 87.6271C14.0202 86.6811 14.0172 85.7351 14.0145 84.7891C14.0083 82.5028 14.0051 80.2166 14.0023 77.9304C14.001 76.8543 13.9993 75.7781 13.9977 74.702C13.9923 71.1254 13.9878 67.5488 13.9855 63.9722C13.9849 63.0437 13.9843 62.1151 13.9837 61.1866C13.9836 60.9558 13.9834 60.7251 13.9833 60.4873C13.9807 56.7484 13.9727 53.0095 13.9626 49.2705C13.9522 45.4334 13.9466 41.5963 13.9456 37.7592C13.9449 35.6041 13.9422 33.4491 13.9342 31.2941C13.9274 29.4588 13.9249 27.6236 13.9279 25.7883C13.9294 24.8518 13.9288 23.9155 13.9227 22.979C13.9162 21.9637 13.9194 20.9485 13.9235 19.9331C13.9201 19.6373 13.9166 19.3415 13.9131 19.0368C13.9319 17.1279 14.2309 15.9821 15.8844 14.5501C16.0618 14.4355 16.2392 14.3208 16.422 14.2027C16.5994 14.0848 16.7768 13.9669 16.9596 13.8455C18.1173 13.1887 18.9625 12.9549 20.3906 12.95Z" fill="#F6AE2D"/>
<path d="M84.4552 6.76465C84.4552 34.2143 84.4552 61.664 84.4552 89.9455C82.1843 90.9377 79.9134 91.9298 77.5737 92.952C76.0169 93.7825 76.0169 93.7825 74.4909 94.6481C74.1589 94.8007 74.1589 94.8007 73.8201 94.9564C73.5104 94.8737 73.2008 94.791 72.8817 94.7058C72.8531 84.1943 72.831 73.6827 72.8178 63.1711C72.8163 61.9307 72.8146 60.6904 72.813 59.4501C72.8127 59.2031 72.8123 58.9562 72.812 58.7018C72.8065 54.7008 72.7967 50.6999 72.7852 46.699C72.7735 42.5952 72.7665 38.4914 72.764 34.3875C72.7623 31.8542 72.7568 29.321 72.7467 26.7877C72.7401 25.0517 72.7381 23.3157 72.7397 21.5797C72.7405 20.5774 72.7393 19.5751 72.7326 18.5728C72.7265 17.6555 72.7262 16.7383 72.7305 15.8211C72.7312 15.3313 72.7258 14.8415 72.7202 14.3518C72.7227 14.0613 72.7252 13.7708 72.7278 13.4715C72.7273 13.2208 72.7268 12.9701 72.7263 12.7118C72.9262 11.8298 73.3673 11.4161 74.1329 10.7734C75.069 10.2901 75.069 10.2901 76.149 9.83774C76.3401 9.75669 76.5313 9.67564 76.7282 9.59213C77.3342 9.33597 77.9426 9.08378 78.5512 8.83164C78.9623 8.65867 79.3732 8.48545 79.784 8.31196C83.4551 6.76465 83.4551 6.76465 84.4552 6.76465Z" fill="#33658A"/>
<path d="M117.924 44.597C117.946 51.0064 117.963 57.4158 117.973 63.8253C117.978 66.8013 117.984 69.7772 117.995 72.7532C118.004 75.3468 118.01 77.9404 118.013 80.5341C118.014 81.9076 118.017 83.2811 118.023 84.6546C118.03 85.9473 118.032 87.2399 118.03 88.5326C118.031 89.0071 118.033 89.4816 118.036 89.956C118.041 90.604 118.04 91.2518 118.037 91.8997C118.04 92.0874 118.043 92.2751 118.045 92.4684C118.03 93.9234 117.55 94.8964 116.419 96.0213C115.096 96.8693 113.581 97.024 111.93 97.1213C111.558 97.1457 111.186 97.1701 110.802 97.1952C110.404 97.2212 110.006 97.2472 109.596 97.274C99.0525 98.0407 88.6085 100.41 79.1375 104.227C78.6962 104.404 78.6962 104.404 78.246 104.584C74.9467 105.916 71.6939 107.277 68.6051 108.905C67.8769 109.238 67.8769 109.238 66.9385 109.238C70.1956 102.28 79.3657 97.8045 87.3277 94.8133C91.047 93.4602 94.8309 92.5214 98.8046 91.7777C99.0586 91.7299 99.3126 91.6822 99.5743 91.633C101.547 91.2838 103.534 91.0403 105.532 90.8041C105.822 90.7695 106.112 90.735 106.41 90.6995C107.12 90.6149 107.83 90.5307 108.54 90.4467C108.539 90.2285 108.538 90.0104 108.537 89.7857C108.507 84.4786 108.494 79.1716 108.501 73.8644C108.503 71.2979 108.5 68.7315 108.484 66.165C108.469 63.928 108.465 61.6913 108.475 59.4543C108.479 58.2697 108.479 57.0855 108.465 55.901C108.452 54.7858 108.453 53.6712 108.466 52.556C108.468 52.147 108.465 51.7379 108.456 51.3289C108.393 48.2391 108.393 48.2391 109.527 47.2903C110.332 46.8963 111.101 46.6173 111.981 46.3508C112.44 46.1575 112.896 45.9602 113.348 45.7567C113.772 45.5831 114.196 45.4106 114.62 45.239C114.837 45.1481 115.054 45.0572 115.277 44.9635C116.875 44.3168 116.875 44.3168 117.924 44.597Z" fill="#33658A"/>
<path d="M102.284 26.5579C102.32 34.0458 102.348 41.5337 102.364 49.0216C102.366 49.9051 102.368 50.7885 102.37 51.672C102.371 51.8479 102.371 52.0237 102.371 52.205C102.378 55.0551 102.391 57.9053 102.405 60.7554C102.42 63.6786 102.428 66.6018 102.431 69.525C102.434 71.1675 102.438 72.81 102.45 74.4524C102.46 75.997 102.464 77.5415 102.461 79.0862C102.462 79.6543 102.465 80.2224 102.471 80.7906C102.478 81.5639 102.477 82.3369 102.472 83.1102C102.477 83.3372 102.482 83.564 102.486 83.7978C102.478 84.3715 102.459 84.8795 102.284 85.4359C101.263 86.1401 100.337 86.2921 99.0195 86.4224C97.139 86.6405 95.3785 87.0367 93.5663 87.4892C92.6587 87.6761 91.9514 87.707 91.0237 87.6908C90.9594 80.503 90.9096 73.3152 90.8799 66.1272C90.8764 65.2786 90.8727 64.43 90.869 63.5813C90.8683 63.4124 90.8675 63.2435 90.8668 63.0694C90.8545 60.3339 90.8323 57.5985 90.8065 54.8631C90.7801 52.0563 90.7647 49.2495 90.7588 46.4426C90.7551 44.8659 90.7465 43.2895 90.726 41.713C90.7069 40.2294 90.701 38.7461 90.7052 37.2625C90.7045 36.7177 90.6988 36.1728 90.6881 35.6281C90.6104 31.5031 90.6104 31.5031 91.6381 30.4201C92.368 30.0211 93.003 29.7843 93.8388 29.5644C94.1557 29.417 94.4725 29.2696 94.799 29.1177C95.7092 28.7321 96.6202 28.3478 97.5337 27.9672C97.8537 27.8306 98.1736 27.6939 98.5033 27.5532C98.8111 27.4243 99.119 27.2955 99.4362 27.1627C99.7131 27.0463 99.99 26.9299 100.275 26.81C101.033 26.5579 101.033 26.5579 102.284 26.5579Z" fill="#33658A"/>
<path d="M68.1897 106.983C68.6026 107.396 69.0154 107.809 69.4408 108.235C67.9942 109.238 67.9942 109.238 66.9385 109.238C67.3135 108.465 67.7133 107.719 68.1897 106.983Z" fill="#333B41"/>
<path d="M29.7158 85.4358C29.6125 85.6012 29.5093 85.7666 29.403 85.9369C28.1643 85.8542 26.9256 85.7716 25.6494 85.6864C25.6494 85.6037 25.6494 85.521 25.6494 85.4358C27.1056 85.2259 28.2678 85.1812 29.7158 85.4358Z" fill="#E7A53B"/>
<path d="M94.4645 29.5642C94.4645 29.8122 94.4645 30.0603 94.4645 30.3158C93.9484 30.4812 93.4322 30.6466 92.9005 30.8169C92.694 30.6516 92.4876 30.4862 92.2749 30.3158C93.7607 29.5642 93.7607 29.5642 94.4645 29.5642Z" fill="#3B4249"/>
</g>
<defs>
<clipPath id="clip0_177_665">
<rect width="132" height="115" fill="white"/>
</clipPath>
</defs>
</svg>
