<svg width="49" height="49" viewBox="0 0 49 49" fill="none" xmlns="http://www.w3.org/2000/svg">
<rect width="49" height="49" rx="24.5" fill="#F26419" fill-opacity="0.1"/>
<path d="M21.0547 4.62292C25.3815 4.52459 29.5801 6.09844 32.7764 9.01648C35.9727 11.9347 37.921 15.9738 38.2158 20.2919C38.5105 24.6097 37.1292 28.8746 34.3594 32.2001L34.332 32.2333L34.3623 32.2635L43.9463 41.8456C44.084 41.9834 44.193 42.1471 44.2676 42.327C44.3422 42.5071 44.3808 42.7005 44.3809 42.8954C44.3809 43.0904 44.3422 43.2836 44.2676 43.4637C44.1929 43.6439 44.0842 43.8083 43.9463 43.9462C43.8084 44.0841 43.6441 44.1928 43.4639 44.2675C43.2837 44.3421 43.0905 44.3807 42.8955 44.3807C42.7006 44.3807 42.5072 44.3421 42.3271 44.2675C42.1472 44.1929 41.9835 44.0839 41.8457 43.9462L32.2637 34.3622L32.2334 34.3319L32.2002 34.3593C28.8748 37.129 24.6098 38.5104 20.292 38.2157C15.9739 37.9209 11.9348 35.9726 9.0166 32.7762C6.09856 29.58 4.52471 25.3814 4.62305 21.0546C4.72145 16.7277 6.48454 12.6052 9.54492 9.5448C12.6053 6.48442 16.7278 4.72133 21.0547 4.62292ZM24.1562 7.89539C21.474 7.36186 18.6936 7.63603 16.167 8.6825C13.6404 9.72905 11.4804 11.5015 9.96094 13.7753C8.44154 16.0492 7.62995 18.7231 7.62988 21.4579C7.63395 25.1239 9.09238 28.639 11.6846 31.2313C14.2769 33.8236 17.7919 35.2819 21.458 35.286C24.1929 35.286 26.8666 34.4753 29.1406 32.9559C31.4146 31.4365 33.1868 29.2766 34.2334 26.7499C35.28 24.2232 35.554 21.443 35.0205 18.7606C34.487 16.0783 33.1701 13.6144 31.2363 11.6805C29.3025 9.74667 26.8386 8.42896 24.1562 7.89539Z" fill="#F26419" stroke="#F26419" stroke-width="0.09375"/>
</svg>
