<svg width="40" height="40" viewBox="0 0 40 40" fill="none" xmlns="http://www.w3.org/2000/svg">
<g clip-path="url(#clip0_178_692)">
<path d="M23.7171 12.4999C23.7171 12.1684 23.8486 11.8505 24.0827 11.616C24.3168 11.3816 24.6343 11.2499 24.9653 11.2499H38.6963C39.0273 11.2499 39.3448 11.3816 39.5789 11.616C39.813 11.8505 39.9445 12.1684 39.9445 12.4999C39.9445 12.8314 39.813 13.1494 39.5789 13.3838C39.3448 13.6182 39.0273 13.7499 38.6963 13.7499H24.9653C24.6343 13.7499 24.3168 13.6182 24.0827 13.3838C23.8486 13.1494 23.7171 12.8314 23.7171 12.4999ZM38.6963 18.7499H24.9653C24.6343 18.7499 24.3168 18.8816 24.0827 19.116C23.8486 19.3505 23.7171 19.6684 23.7171 19.9999C23.7171 20.3314 23.8486 20.6494 24.0827 20.8838C24.3168 21.1182 24.6343 21.2499 24.9653 21.2499H38.6963C39.0273 21.2499 39.3448 21.1182 39.5789 20.8838C39.813 20.6494 39.9445 20.3314 39.9445 19.9999C39.9445 19.6684 39.813 19.3505 39.5789 19.116C39.3448 18.8816 39.0273 18.7499 38.6963 18.7499ZM38.6963 26.2499H28.7101C28.3791 26.2499 28.0616 26.3816 27.8275 26.616C27.5934 26.8505 27.4619 27.1684 27.4619 27.4999C27.4619 27.8314 27.5934 28.1494 27.8275 28.3838C28.0616 28.6182 28.3791 28.7499 28.7101 28.7499H38.6963C39.0273 28.7499 39.3448 28.6182 39.5789 28.3838C39.813 28.1494 39.9445 27.8314 39.9445 27.4999C39.9445 27.1684 39.813 26.8505 39.5789 26.616C39.3448 26.3816 39.0273 26.2499 38.6963 26.2499ZM23.6781 29.6874C23.7189 29.8464 23.728 30.012 23.7049 30.1745C23.6818 30.3371 23.627 30.4935 23.5435 30.6348C23.46 30.7761 23.3496 30.8996 23.2185 30.9982C23.0874 31.0967 22.9381 31.1685 22.7793 31.2093C22.6776 31.2367 22.5726 31.2504 22.4672 31.2499C22.1904 31.2501 21.9214 31.158 21.7024 30.9883C21.4835 30.8186 21.3272 30.5808 21.258 30.3124C20.2968 26.5718 16.5239 23.7499 12.4811 23.7499C8.43828 23.7499 4.6654 26.5702 3.70423 30.3124C3.62147 30.6336 3.41469 30.9087 3.12938 31.0771C2.84408 31.2456 2.50362 31.2937 2.18291 31.2109C1.86219 31.128 1.58749 30.9209 1.41923 30.6352C1.25098 30.3495 1.20295 30.0086 1.28571 29.6874C2.15794 26.2952 4.69348 23.5484 7.91089 22.1874C6.67203 21.2319 5.76292 19.912 5.31104 18.4129C4.85916 16.9138 4.88718 15.3107 5.39118 13.8283C5.89517 12.346 6.84986 11.0588 8.12136 10.1473C9.39285 9.23574 10.9174 8.74561 12.4811 8.74561C14.0448 8.74561 15.5694 9.23574 16.8408 10.1473C18.1123 11.0588 19.067 12.346 19.571 13.8283C20.075 15.3107 20.1031 16.9138 19.6512 18.4129C19.1993 19.912 18.2902 21.2319 17.0513 22.1874C20.2703 23.5484 22.8058 26.2952 23.6781 29.6874ZM12.4827 21.2499C13.4702 21.2499 14.4356 20.9567 15.2567 20.4073C16.0778 19.8579 16.7177 19.077 17.0957 18.1633C17.4736 17.2497 17.5724 16.2444 17.3798 15.2745C17.1871 14.3046 16.7116 13.4136 16.0133 12.7144C15.315 12.0151 14.4253 11.5389 13.4568 11.346C12.4882 11.1531 11.4843 11.2521 10.5719 11.6305C9.65954 12.009 8.87973 12.6498 8.33108 13.4721C7.78244 14.2943 7.4896 15.261 7.4896 16.2499C7.4896 17.576 8.01565 18.8478 8.95203 19.7854C9.88841 20.7231 11.1584 21.2499 12.4827 21.2499Z" fill="white"/>
</g>
<defs>
<clipPath id="clip0_178_692">
<rect width="39.9445" height="40" fill="white"/>
</clipPath>
</defs>
</svg>
