<svg width="39" height="39" viewBox="0 0 39 39" fill="none" xmlns="http://www.w3.org/2000/svg">
<path d="M1.625 34.125L19.5 3.25L37.375 34.125H1.625ZM20.6586 28.7836C20.9695 28.4716 21.125 28.0854 21.125 27.625C21.125 27.1646 20.969 26.7789 20.657 26.468C20.345 26.1571 19.9593 26.0011 19.5 26C19.0407 25.9989 18.655 26.1549 18.343 26.468C18.031 26.7811 17.875 27.1667 17.875 27.625C17.875 28.0833 18.031 28.4695 18.343 28.7836C18.655 29.0978 19.0407 29.2533 19.5 29.25C19.9593 29.2467 20.3455 29.0924 20.6586 28.7836ZM17.875 24.375H21.125V16.25H17.875V24.375Z" fill="#F26419"/>
</svg>
