<svg width="123" height="123" viewBox="0 0 123 123" fill="none" xmlns="http://www.w3.org/2000/svg">
<rect width="123" height="123" rx="61.5" fill="#F26419" fill-opacity="0.7"/>
<path d="M47.0219 55.4781C43.0073 51.4635 41 46.6375 41 41C41 35.3625 43.0073 30.5365 47.0219 26.5219C51.0365 22.5073 55.8625 20.5 61.5 20.5C67.1375 20.5 71.9635 22.5073 75.9781 26.5219C79.9927 30.5365 82 35.3625 82 41C82 46.6375 79.9927 51.4635 75.9781 55.4781C71.9635 59.4927 67.1375 61.5 61.5 61.5C55.8625 61.5 51.0365 59.4927 47.0219 55.4781ZM20.5 102.5V88.15C20.5 85.2458 21.2483 82.5774 22.7448 80.1447C24.2413 77.7121 26.2263 75.8534 28.7 74.5688C33.9958 71.9208 39.3771 69.9357 44.8438 68.6135C50.3104 67.2912 55.8625 66.6284 61.5 66.625C67.1375 66.6216 72.6896 67.2844 78.1562 68.6135C83.6229 69.9426 89.0042 71.9277 94.3 74.5688C96.7771 75.85 98.7639 77.7087 100.26 80.1447C101.757 82.5808 102.503 85.2493 102.5 88.15V102.5H20.5Z" fill="white"/>
</svg>
