<svg width="74" height="74" viewBox="0 0 74 74" fill="none" xmlns="http://www.w3.org/2000/svg">
<path d="M24.6665 18.5H52.4165V24.6667H24.6665V18.5Z" fill="#F26419"/>
<path d="M61.6667 6.16663H18.5C13.4125 6.16663 9.25 10.3291 9.25 15.4166V58.5833C9.25 63.6708 13.4125 67.8333 18.5 67.8333H64.75V61.6666H18.5C16.8042 61.6666 15.4167 60.2791 15.4167 58.5833C15.4167 56.8875 16.8042 55.5 18.5 55.5H61.6667C63.3625 55.5 64.75 54.1125 64.75 52.4166V9.24996C64.75 7.55413 63.3625 6.16663 61.6667 6.16663ZM43.1667 49.3333H18.5C17.4208 49.3333 16.3725 49.5491 15.4167 49.8883V15.4166C15.4167 13.7208 16.8042 12.3333 18.5 12.3333H58.5833V49.3333H43.1667Z" fill="#F26419"/>
</svg>
