<svg width="30" height="30" viewBox="0 0 30 30" fill="none" xmlns="http://www.w3.org/2000/svg">
<path d="M7.49902 26.59C6.81152 26.59 6.22319 26.3454 5.73402 25.8562C5.24486 25.3671 4.99986 24.7783 4.99902 24.09V4.08997C4.99902 3.40247 5.24402 2.81413 5.73402 2.32497C6.22402 1.8358 6.81236 1.5908 7.49902 1.58997H22.499C23.1865 1.58997 23.7753 1.83497 24.2653 2.32497C24.7553 2.81497 24.9999 3.4033 24.999 4.08997V24.09C24.999 24.7775 24.7544 25.3662 24.2653 25.8562C23.7761 26.3462 23.1874 26.5908 22.499 26.59H7.49902ZM7.49902 24.09H22.499V4.08997H19.999V12.84L16.874 10.965L13.749 12.84V4.08997H7.49902V24.09Z" fill="white"/>
</svg>
