<svg width="84" height="85" viewBox="0 0 84 85" fill="none" xmlns="http://www.w3.org/2000/svg">
<g clip-path="url(#clip0_180_865)">
<path d="M72.1742 65.43C71.9905 61.2796 70.6058 58.5835 68.0989 56.246C61.8383 50.3956 54.2914 44.8109 47.3417 39.8105C44.1195 37.4929 40.5364 34.4316 36.8024 33.0171C31.5392 31.0183 25.5936 31.7288 19.9564 32.539C17.4955 32.8909 15.0214 33.2894 12.5933 33.8671C9.78454 34.5445 6.45079 35.348 4.0686 37.0546C1.92923 38.5886 2.19173 40.5077 3.24173 42.2874C3.39923 43.1042 3.24829 43.8812 3.25485 44.7113C3.26798 46.2784 3.09079 47.8456 2.71673 49.3597C2.48048 50.296 2.15892 51.1991 1.85704 52.1156C0.656104 55.6616 3.97017 58.6366 6.42454 60.6886C7.80267 61.8374 9.27267 62.8734 10.6574 64.0155C16.0386 68.4448 21.5511 72.4491 27.057 76.6659C33.508 81.6132 35.9689 83.3331 44.0211 80.5507C46.1933 79.8003 48.418 79.2027 50.6427 78.6249C53.7927 77.8081 57.9795 77.0312 61.0442 75.9421C64.1483 74.8398 68.158 73.3788 70.4352 70.862C71.577 69.607 72.0627 67.8073 72.0692 66.1339C72.148 65.928 72.1873 65.7023 72.1742 65.43Z" fill="white"/>
<path d="M8.77408 38.6616C11.8716 37.3402 24.045 35.4277 26.7291 35.1156C29.0063 34.8499 31.8741 34.4781 34.1316 34.8167C35.0438 34.9695 37.9706 36.5167 41.0091 38.6085C47.2238 42.8851 63.6169 55.323 64.6538 56.2859C64.9294 56.5449 67.1803 58.7163 66.045 58.7031C64.8966 58.6898 63.7481 58.7695 62.6128 58.9023C60.6703 59.1347 49.3369 61.864 44.1919 63.139C43.1747 63.3913 40.4185 63.9093 39.6572 64.062C37.5047 64.507 35.7394 63.8097 33.9806 62.5613C30.3122 59.9714 7.48783 42.1745 6.89064 40.9195C6.45752 40.0296 7.33033 39.2792 8.77408 38.6616Z" fill="#BDCF46"/>
<path d="M72.7321 61.0738C72.0234 59.1879 70.3434 57.6937 68.8274 56.2726C61.8909 49.7914 54.5999 44.4922 46.9612 38.914C44.999 37.4797 43.0762 36.0984 41.0352 34.7769C40.0246 34.1261 38.7712 33.575 37.6949 33.0304C34.1381 31.2308 30.4368 31.3636 26.5912 31.8086C19.589 32.6187 12.8231 32.8578 6.10305 35.182C4.23274 35.8328 2.4018 36.7359 1.96868 39.0136C1.79805 39.9367 2.30337 41.4972 2.63149 42.3339C2.88743 42.9714 0.734929 50.9535 0.413366 51.9097C-0.387259 54.2937 0.767741 56.432 2.37555 58.2183C3.25493 59.2011 28.0218 78.5187 28.6452 78.9769C31.0077 80.7367 32.8781 81.9386 34.8796 82.523C37.4127 83.2601 40.1493 82.9812 44.3493 81.5336C46.0359 80.9492 59.6137 77.5425 67.1671 74.5211C69.7396 73.4918 71.2162 72.1105 71.8199 71.4398C72.5549 70.6297 73.0274 69.6004 73.2834 68.5179C73.4409 67.8605 73.5196 67.1765 73.5262 66.5125C73.5918 66.3066 73.244 62.4351 72.7321 61.0738ZM8.77399 38.6617C11.8715 37.3402 24.0449 35.4277 26.729 35.1156C29.0062 34.85 31.874 34.4781 34.1315 34.8168C35.0437 34.9695 37.9706 36.5168 41.009 38.6086C47.2237 42.8851 63.6168 55.323 64.6537 56.2859C64.9293 56.5449 67.1802 58.7164 66.0449 58.7031C64.8965 58.6898 63.7481 58.7695 62.6127 58.9023C60.6702 59.1347 49.3368 61.864 44.1918 63.139C43.1746 63.3914 40.4184 63.9093 39.6571 64.0621C37.5046 64.507 35.7393 63.8097 33.9806 62.5613C30.3121 59.9714 7.48774 42.1746 6.89055 40.9195C6.45743 40.0297 7.33024 39.2793 8.77399 38.6617ZM6.16212 57.1027C5.52555 56.4519 3.02524 54.7785 3.70774 52.6668C4.44274 50.3824 5.14493 46.6836 5.30243 44.2464C8.1243 46.5375 34.4006 66.8312 36.0281 67.3027C37.0452 70.5035 37.0584 74.0961 35.9296 77.2636C35.7721 77.7019 35.6474 78.1269 35.4637 78.5519C34.7418 78.2797 34.0331 77.8945 33.2718 77.423C32.0512 76.6527 8.28837 59.2742 6.16212 57.1027ZM67.4165 70.4172C65.054 72.1238 61.4906 72.8078 59.1543 73.505C54.1537 75.0058 49.1071 76.3738 44.054 77.6754C42.5512 78.0605 41.0287 78.5254 39.4931 78.7843C39.7752 78.1535 40.0181 77.5027 40.1887 76.8187C40.6415 75.0125 40.7268 73.0734 40.5299 71.2207C40.4249 70.2711 40.3921 68.5379 40.169 67.6215C40.4315 67.6015 46.6199 66.1207 51.509 64.8589C56.4834 63.5773 62.2518 61.8043 65.7102 61.7312C66.7437 61.715 67.7498 62.0676 68.5518 62.7273C69.7593 63.73 70.0349 65.5828 69.7331 67.057C69.4509 68.5047 68.5781 69.5804 67.4165 70.4172Z" fill="#2F2F2F"/>
<path d="M15.6582 52.8329C19.4119 55.7481 29.2163 63.3251 33.7182 66.8048C35.1488 67.9071 36.7566 69.0493 40.0182 68.4517C43.2798 67.854 63.6235 62.5149 63.6235 62.5149C65.4807 62.0235 67.5348 61.8907 69.4379 62.1497C70.1269 62.2427 70.8029 62.4618 71.4198 62.7939C71.6363 62.9134 71.866 63.0329 72.0629 63.1923C72.1679 63.2786 72.2401 63.3915 72.3516 63.4712C73.8544 64.5005 72.9357 61.4126 72.7651 60.9942C72.3516 59.9782 71.7807 59.0286 71.1245 58.1521C70.5969 57.4598 70.0129 56.8134 69.3788 56.2196C62.4488 49.745 54.7838 44.1403 47.1451 38.5622C45.1829 37.1278 43.2469 35.6403 41.206 34.3189C40.1954 33.6681 39.1716 33.0239 38.1019 32.4794C34.5385 30.6798 30.5551 30.8591 26.7094 31.304C19.7073 32.1142 12.7051 32.5126 5.98507 34.8435C4.1082 35.4942 1.84414 36.7095 1.42414 39.0005C1.25351 39.9235 1.25351 41.5306 2.86132 42.9716C4.02945 44.0208 10.7101 48.988 15.6582 52.8329Z" fill="#BDCF46"/>
<path d="M82.4974 47.786C82.3136 43.6356 80.9289 40.9395 78.4221 38.602C72.1614 32.7516 64.6146 27.1668 57.6583 22.1664C54.4361 19.8489 50.853 16.7875 47.1189 15.3731C41.8558 13.3742 35.9102 14.0848 30.2664 14.8949C27.8055 15.2469 25.3314 15.6453 22.9099 16.2231C20.1011 16.8938 16.7608 17.7039 14.3786 19.4106C12.2392 20.9446 12.5017 22.8703 13.5517 24.6434C13.7092 25.4602 13.5583 26.2371 13.5649 27.0672C13.578 28.6344 13.4008 30.2016 13.0267 31.7156C12.7905 32.652 12.4689 33.5551 12.1671 34.4715C10.9727 38.0176 14.2867 40.986 16.7477 43.0446C18.1258 44.1934 19.5958 45.2293 20.9805 46.3715C26.3552 50.8008 31.8742 54.8051 37.3736 59.0219C43.8246 63.9692 46.2855 65.6891 54.3377 62.9067C56.5099 62.1563 58.7346 61.5586 60.9592 60.9809C64.1092 60.1641 68.2896 59.3871 71.3608 58.2981C74.4649 57.1957 78.4746 55.7348 80.7517 53.218C81.8871 51.9629 82.3792 50.1633 82.3924 48.4899C82.4711 48.284 82.5105 48.0516 82.4974 47.786Z" fill="white"/>
<path d="M19.0966 21.0176C22.1941 19.6961 34.361 17.7836 37.0516 17.4715C39.3288 17.2059 42.1901 16.834 44.4541 17.1727C45.3663 17.3254 48.2932 18.8727 51.3316 20.9645C57.5463 25.241 73.9394 37.6789 74.9698 38.6418C75.2454 38.9008 77.5029 41.0723 76.3676 41.059C75.2191 41.0457 74.0773 41.1254 72.9354 41.2582C70.9994 41.4907 59.6594 44.22 54.5145 45.495C53.4973 45.7473 50.741 46.2653 49.9798 46.418C47.8273 46.8629 46.0619 46.1657 44.2966 44.9172C40.6282 42.3274 17.8038 24.5305 17.2066 23.2754C16.7801 22.3856 17.6529 21.6352 19.0966 21.0176Z" fill="#BDCF46"/>
<path d="M83.0549 44.7446C82.3461 42.852 80.6661 41.3579 79.1502 39.9434C72.2202 33.4688 64.9292 28.163 57.2839 22.5915C55.3152 21.1571 53.3989 19.7758 51.358 18.461C50.3408 17.8102 49.0939 17.259 48.0177 16.7145C44.4477 14.9149 40.7596 15.0477 36.9074 15.4926C29.9117 16.3028 23.1458 16.5419 16.4258 18.8727C14.5555 19.5235 12.718 20.42 12.2914 22.7044C12.1208 23.6274 12.6196 25.188 12.9542 26.0247C13.2102 26.6622 11.0577 34.6442 10.7361 35.5938C9.9355 37.9778 11.0905 40.1161 12.6983 41.909C13.5777 42.8919 38.3446 62.2094 38.968 62.6676C41.3305 64.4208 43.2008 65.6294 45.2024 66.2071C47.7289 66.9376 50.4721 66.6653 54.6721 65.2176C56.3586 64.6333 69.9364 61.2266 77.4899 58.2118C80.0624 57.1825 81.5389 55.7946 82.1427 55.1305C82.8777 54.3204 83.3502 53.2911 83.6127 52.2087C83.7702 51.5512 83.8489 50.8673 83.8555 50.2032C83.9146 49.9774 83.5667 46.1059 83.0549 44.7446ZM19.0967 22.3325C22.1942 21.011 34.3611 19.1051 37.0517 18.7864C39.3289 18.5141 42.1902 18.1489 44.4542 18.4876C45.3664 18.6403 48.2933 20.1876 51.3317 22.2794C57.5464 26.5559 73.9396 38.9938 74.9699 39.9567C75.2455 40.2157 77.503 42.3872 76.3677 42.3739C75.2192 42.3606 74.0774 42.4337 72.9355 42.5731C70.9996 42.8055 59.6596 45.5415 54.5146 46.8098C53.4974 47.0622 50.7411 47.5735 49.9799 47.7329C47.8274 48.1778 46.0621 47.4805 44.2967 46.2387C40.6283 43.6489 17.8039 25.852 17.2067 24.5969C16.7802 23.7005 17.653 22.9501 19.0967 22.3325ZM16.4849 40.7735C15.8483 40.1227 13.348 38.4559 14.0305 36.3376C14.7655 34.0532 15.4677 30.361 15.6186 27.9173C18.4405 30.2016 44.7167 50.502 46.3442 50.9735C47.3614 54.1743 47.3746 57.7669 46.2458 60.9278C46.0883 61.3661 45.9636 61.7977 45.7799 62.2161C45.058 61.9438 44.3492 61.5587 43.588 61.0872C42.3739 60.3235 18.6111 42.945 16.4849 40.7735ZM77.7392 54.088C75.3767 55.788 71.8133 56.4786 69.4836 57.1825C64.483 58.6833 59.4364 60.0446 54.3833 61.3528C52.8739 61.7446 51.358 62.2028 49.8224 62.4618C50.1046 61.8309 50.3408 61.1801 50.518 60.4962C50.9708 58.6833 51.0561 56.7508 50.8658 54.8981C50.7608 53.9485 50.7214 52.2219 50.4983 51.2989C50.7608 51.279 56.9492 49.7981 61.8383 48.5364C66.8127 47.2547 72.5746 45.4817 76.0461 45.4087C77.4177 45.3821 78.4283 46.0262 78.8811 46.4048C80.0886 47.4075 80.3708 49.2602 80.0689 50.7344C79.7736 52.1755 78.9008 53.2512 77.7392 54.088Z" fill="#2F2F2F"/>
<path d="M25.9812 35.1886C29.7349 38.1039 39.5393 45.6808 44.0477 49.1605C45.4784 50.2695 47.0862 51.405 50.3412 50.8074C53.5962 50.2097 73.9465 44.8707 73.9465 44.8707C75.8438 44.3746 77.8175 44.2506 79.7609 44.5054C80.4565 44.5984 81.1324 44.8175 81.7427 45.1496C81.9593 45.2691 82.189 45.3886 82.3859 45.548C82.4909 45.6343 82.563 45.7472 82.6746 45.8203C84.1774 46.8496 83.2521 43.7683 83.0815 43.3433C82.668 42.3273 82.0971 41.3777 81.4409 40.5011C80.9133 39.8088 80.3294 39.1625 79.6952 38.5687C72.7652 32.1007 65.1068 26.496 57.4615 20.9179C55.4927 19.4835 53.5634 17.996 51.5224 16.6746C50.5118 16.0238 49.488 15.3796 48.4184 14.8351C44.8549 13.0355 40.8715 13.2148 37.0259 13.6597C30.0237 14.4699 23.0215 14.8683 16.3015 17.1992C14.4246 17.85 12.1671 19.0718 11.7405 21.3562C11.5699 22.2793 11.5699 23.8863 13.1777 25.3273C14.3524 26.3765 21.033 31.3437 25.9812 35.1886Z" fill="#006CA2"/>
<path d="M76.0789 36.4969C75.8952 32.3465 74.517 29.6504 72.0036 27.3129C65.743 21.4625 58.1961 15.8778 51.2464 10.8774C48.0242 8.55979 44.4411 5.49846 40.707 4.08401C35.4439 2.08518 29.4917 2.79573 23.8611 3.60588C21.3936 3.95783 18.9195 4.35627 16.498 4.93401C13.6892 5.61135 10.3489 6.41487 7.96672 8.12151C5.82735 9.65549 6.08985 11.5813 7.13985 13.3543C7.29079 14.1711 7.14641 14.9481 7.15297 15.7781C7.1661 17.3453 6.98891 18.9125 6.60829 20.4266C6.3786 21.3629 6.05704 22.266 5.7486 23.1824C4.55422 26.7285 7.86829 29.6969 10.3292 31.7555C11.7073 32.9043 13.1773 33.9403 14.562 35.0824C19.9367 39.5117 25.4558 43.516 30.9552 47.7328C37.4061 52.6801 39.8736 54.4 47.9258 51.6176C50.098 50.8672 52.3161 50.2696 54.5474 49.6918C57.6974 48.875 61.8777 48.0981 64.9423 47.009C68.053 45.9067 72.0561 44.4457 74.3399 41.9289C75.4752 40.6738 75.9673 38.8742 75.9805 37.2008C76.0527 36.9949 76.092 36.7625 76.0789 36.4969Z" fill="white"/>
<path d="M12.6786 9.72854C15.7761 8.40706 27.9496 6.49456 30.6336 6.18245C32.9108 5.91682 35.7786 5.54495 38.0361 5.88362C38.9418 6.03636 41.8752 7.58362 44.9136 9.67542C51.1283 13.952 67.5214 26.3899 68.5518 27.3528C68.8274 27.6117 71.0783 29.7832 69.943 29.77C68.7946 29.7567 67.6527 29.8364 66.5108 29.9692C64.5683 30.2016 53.2349 32.9309 48.0899 34.2059C47.0727 34.4582 44.3164 34.9762 43.5552 35.1289C41.4027 35.5739 39.6374 34.8766 37.8721 33.6282C34.2036 31.0383 11.3793 13.2414 10.7821 11.9864C10.3686 11.0899 11.2349 10.3395 12.6786 9.72854Z" fill="#BDCF46"/>
<path d="M76.6369 32.134C75.9281 30.2481 74.2547 28.754 72.7322 27.3329C65.8022 20.8583 58.5113 15.559 50.866 9.98092C48.9038 8.54655 46.981 7.1653 44.94 5.84381C43.9294 5.19303 42.676 4.64186 41.5997 4.09733C38.0363 2.29772 34.3416 2.43053 30.496 2.87545C23.4938 3.68561 16.7344 3.92467 10.0078 6.25553C8.13753 6.90631 6.30003 7.8028 5.87346 10.0872C5.70284 11.0102 6.20159 12.5708 6.53628 13.4075C6.79221 14.045 4.63315 22.027 4.31815 22.9833C3.51753 25.3673 4.67253 27.5055 6.28034 29.2919C7.15971 30.2747 31.9266 49.5923 32.55 50.0505C34.9125 51.8102 36.7828 53.0122 38.7844 53.5899C41.311 54.327 44.0541 54.0481 48.2541 52.6005C49.9472 52.0161 63.5185 48.6094 71.0719 45.588C73.6444 44.5587 75.121 43.1774 75.7247 42.5067C76.4597 41.6965 76.9322 40.6673 77.1947 39.5848C77.3522 38.9274 77.4244 38.2434 77.4375 37.5794C77.4966 37.3735 77.1488 33.502 76.6369 32.134ZM12.6788 9.72858C15.7763 8.40709 27.9497 6.4946 30.6338 6.18249C32.911 5.91686 35.7788 5.54499 38.0363 5.88366C38.9419 6.03639 41.8753 7.58366 44.9138 9.67545C51.1285 13.952 67.5216 26.3899 68.5519 27.3528C68.8275 27.6118 71.0785 29.7833 69.9432 29.77C68.7947 29.7567 67.6528 29.8364 66.511 29.9692C64.5685 30.2016 53.235 32.9309 48.09 34.2059C47.0728 34.4583 44.3166 34.9762 43.5553 35.129C41.4028 35.5739 39.6375 34.8766 37.8722 33.6282C34.2038 31.0383 11.3794 13.2415 10.7822 11.9864C10.3688 11.0899 11.235 10.3395 12.6788 9.72858ZM10.0669 28.1696C9.43034 27.5188 6.93003 25.8454 7.61253 23.7337C8.34753 21.4493 9.04971 17.7505 9.20721 15.3133C12.0225 17.6044 38.2988 37.8981 39.9328 38.3696C40.95 41.5704 40.9632 45.163 39.8344 48.3305C39.6769 48.7688 39.5522 49.1938 39.3685 49.6188C38.64 49.3465 37.9378 48.9614 37.1766 48.4899C35.9625 47.7196 12.1932 30.3344 10.0669 28.1696ZM71.3278 41.4774C68.9588 43.1774 65.4019 43.868 63.0656 44.5653C58.065 46.0661 53.0185 47.434 47.9653 48.7356C46.4625 49.1208 44.94 49.5856 43.4044 49.8446C43.6866 49.2137 43.9294 48.563 44.1 47.879C44.5528 46.0727 44.6382 44.1337 44.4413 42.2809C44.3363 41.3313 44.3035 39.5981 44.0803 38.6751C44.3428 38.6551 50.5313 37.1743 55.4203 35.9192C60.3947 34.6376 66.1631 32.8645 69.6282 32.7915C70.6616 32.7752 71.6677 33.1279 72.4697 33.7876C73.6772 34.7903 73.9528 36.643 73.651 38.1173C73.3557 39.5649 72.4828 40.6473 71.3278 41.4774Z" fill="#2F2F2F"/>
<path d="M19.5627 23.8929C23.323 26.8082 33.1208 34.3851 37.6293 37.8648C39.0599 38.9738 40.6677 40.1093 43.9227 39.5117C47.1777 38.914 67.528 33.575 67.528 33.575C69.3852 33.0835 71.4393 32.9507 73.3424 33.2097C74.0315 33.3027 74.7074 33.5218 75.3243 33.8539C75.5408 33.9734 75.7705 34.0929 75.9674 34.2523C76.0724 34.3386 76.1446 34.4515 76.2561 34.5312C77.759 35.5605 76.8337 32.4726 76.663 32.0542C76.2496 31.0382 75.6786 30.0886 75.0224 29.2121C74.4974 28.5214 73.9133 27.8773 73.2833 27.2796C66.3533 20.805 58.6883 15.2003 51.0496 9.62222C49.0874 8.18784 47.1515 6.70034 45.104 5.37886C44.0933 4.73472 43.0761 4.09058 41.9999 3.54605C38.4365 1.74644 34.453 1.92573 30.6074 2.37066C23.6052 3.18745 16.6096 3.58589 9.88959 5.91011C8.01271 6.56089 5.74865 7.78277 5.32208 10.0671C5.15146 10.9902 5.15146 12.5972 6.75927 14.0382C7.93396 15.0875 14.6146 20.0546 19.5627 23.8929Z" fill="#ED6C30"/>
<path d="M26.0206 16.2961C25.4496 16.2297 24.8984 16.0637 24.3734 15.7516C23.3168 15.1207 22.129 14.1911 21.4662 13.2082C20.6852 12.0528 21.5974 11.6278 22.7459 11.3356C24.334 10.9372 25.9681 10.6782 27.6021 10.459C29.2821 10.2332 31.0015 10.1004 32.6815 9.87465C33.9677 9.69536 35.2868 9.57583 36.5599 9.44965C37.3277 9.38325 38.1415 9.25044 38.8962 9.4895C39.6706 9.7352 40.3662 10.2797 40.9568 10.7911C41.6131 11.3622 42.3218 11.8868 42.8665 12.5575C43.0174 12.75 43.1881 12.9293 43.2406 13.175C43.2734 13.3211 43.2865 13.4141 43.2077 13.5403C42.9912 13.859 42.4071 14.0782 42.0396 14.118C40.0052 14.3504 38.0824 14.9282 36.0809 15.2934C34.3156 15.6122 32.4846 15.6918 30.6996 15.9043C29.7874 16.0172 28.8687 16.0836 27.9499 16.1766C27.3068 16.2497 26.6768 16.3758 26.0206 16.2961Z" fill="white"/>
</g>
<defs>
<clipPath id="clip0_180_865">
<rect width="84" height="85" fill="white"/>
</clipPath>
</defs>
</svg>
