<svg width="28" height="28" viewBox="0 0 28 28" fill="none" xmlns="http://www.w3.org/2000/svg">
<path d="M9.38467 12.6292C8.47078 11.7154 8.01383 10.6167 8.01383 9.33341C8.01383 8.05008 8.47078 6.95147 9.38467 6.03758C10.2986 5.12369 11.3972 4.66675 12.6805 4.66675C13.9638 4.66675 15.0624 5.12369 15.9763 6.03758C16.8902 6.95147 17.3472 8.05008 17.3472 9.33341C17.3472 10.6167 16.8902 11.7154 15.9763 12.6292C15.0624 13.5431 13.9638 14.0001 12.6805 14.0001C11.3972 14.0001 10.2986 13.5431 9.38467 12.6292ZM3.34717 23.3334V20.0667C3.34717 19.4056 3.5175 18.7982 3.85817 18.2444C4.19883 17.6906 4.65072 17.2675 5.21383 16.9751C6.41939 16.3723 7.64439 15.9204 8.88883 15.6194C10.1333 15.3184 11.3972 15.1675 12.6805 15.1667C13.9638 15.166 15.2277 15.3169 16.4722 15.6194C17.7166 15.922 18.9416 16.3739 20.1472 16.9751C20.7111 17.2667 21.1633 17.6899 21.504 18.2444C21.8447 18.799 22.0146 19.4064 22.0138 20.0667V23.3334H3.34717Z" fill="white"/>
</svg>
