<svg width="70" height="70" viewBox="0 0 70 70" fill="none" xmlns="http://www.w3.org/2000/svg">
<path d="M46.6665 32.0833C51.5082 32.0833 55.3873 28.1749 55.3873 23.3333C55.3873 18.4916 51.5082 14.5833 46.6665 14.5833C41.8248 14.5833 37.9165 18.4916 37.9165 23.3333C37.9165 28.1749 41.8248 32.0833 46.6665 32.0833ZM23.3332 32.0833C28.1748 32.0833 32.054 28.1749 32.054 23.3333C32.054 18.4916 28.1748 14.5833 23.3332 14.5833C18.4915 14.5833 14.5832 18.4916 14.5832 23.3333C14.5832 28.1749 18.4915 32.0833 23.3332 32.0833ZM23.3332 37.9166C16.5373 37.9166 2.9165 41.3291 2.9165 48.1249V55.4166H43.7498V48.1249C43.7498 41.3291 30.129 37.9166 23.3332 37.9166ZM46.6665 37.9166C45.8207 37.9166 44.8582 37.9749 43.8373 38.0624C47.2207 40.5124 49.5832 43.8083 49.5832 48.1249V55.4166H67.0832V48.1249C67.0832 41.3291 53.4623 37.9166 46.6665 37.9166Z" fill="#F26419"/>
</svg>
