<svg width="99" height="99" viewBox="0 0 99 99" fill="none" xmlns="http://www.w3.org/2000/svg">
<path d="M49.5 33C52.7821 33 55.9297 31.6962 58.2504 29.3754C60.5712 27.0547 61.875 23.9071 61.875 20.625C61.875 17.3429 60.5712 14.1953 58.2504 11.8746C55.9297 9.55379 52.7821 8.25 49.5 8.25C46.2179 8.25 43.0703 9.55379 40.7496 11.8746C38.4288 14.1953 37.125 17.3429 37.125 20.625C37.125 23.9071 38.4288 27.0547 40.7496 29.3754C43.0703 31.6962 46.2179 33 49.5 33ZM49.5 47.6025C39.765 38.5688 26.8125 33 12.375 33V78.375C26.8125 78.375 39.765 83.9438 49.5 92.9775C59.235 83.9438 72.1875 78.375 86.625 78.375V33C72.1875 33 59.235 38.5688 49.5 47.6025Z" fill="#17496E"/>
</svg>
