<svg width="28" height="28" viewBox="0 0 28 28" fill="none" xmlns="http://www.w3.org/2000/svg">
<g clip-path="url(#clip0_56_448)">
<rect width="28" height="28" fill="#33658A"/>
<path d="M24.7507 0.267127C24.8314 0.183556 24.928 0.116896 25.0347 0.0710385C25.1415 0.0251806 25.2563 0.00104263 25.3725 3.30371e-05C25.4887 -0.000976552 25.6039 0.0211625 25.7114 0.0651582C25.819 0.109154 25.9166 0.174125 25.9988 0.256282C26.081 0.338438 26.1459 0.436133 26.1899 0.543667C26.2339 0.651202 26.2561 0.766421 26.2551 0.882603C26.254 0.998785 26.2299 1.1136 26.184 1.22036C26.1382 1.32711 26.0715 1.42366 25.988 1.50438L17.8155 9.67688C18.7621 10.9156 19.2255 12.4565 19.1192 14.0119C19.013 15.5673 18.3443 17.0309 17.238 18.1294L16.5441 18.8233L7.45283 9.732L8.13621 9.09325C10.4401 6.80075 14.0355 6.51025 16.5773 8.4405L24.7507 0.267127ZM5.92071 10.6744L2.25708 12.3395C2.12847 12.3981 2.01595 12.4869 1.92915 12.5984C1.84235 12.7099 1.78385 12.8408 1.75865 12.9799C1.73345 13.1189 1.74231 13.262 1.78447 13.3969C1.82662 13.5318 1.90082 13.6544 2.00071 13.7544L12.5007 24.2544C12.6007 24.3543 12.7233 24.4285 12.8582 24.4706C12.9931 24.5128 13.1362 24.5216 13.2752 24.4964C13.4143 24.4712 13.5452 24.4127 13.6567 24.3259C13.7682 24.2391 13.857 24.1266 13.9156 23.998L15.5807 20.3344L5.92071 10.6744Z" fill="white"/>
</g>
<defs>
<clipPath id="clip0_56_448">
<rect width="28" height="28" fill="white"/>
</clipPath>
</defs>
</svg>
